<svg id="svg" version="1.1" xmlns="http://www.w3.org/2000/svg" xmlns:xlink="http://www.w3.org/1999/xlink" width="400" height="400" viewBox="0, 0, 400,400"><g id="svgg"><path id="path0" d="M210.000 59.374 C 208.790 59.658,202.760 61.552,196.600 63.584 C 182.079 68.371,173.746 71.096,172.000 71.627 C 171.230 71.861,170.240 72.202,169.800 72.385 C 168.843 72.782,152.089 78.219,130.200 85.237 C 126.020 86.577,122.287 87.837,121.905 88.037 C 121.523 88.236,120.884 88.400,120.485 88.400 C 120.086 88.400,119.589 88.549,119.380 88.730 C 119.171 88.912,118.190 89.293,117.200 89.577 C 115.162 90.161,113.375 90.737,112.200 91.188 C 111.760 91.357,110.230 91.862,108.800 92.309 C 88.108 98.791,83.422 100.578,81.139 102.861 C 76.985 107.015,76.513 111.317,79.126 121.200 C 81.195 129.023,83.343 138.454,84.378 144.262 C 84.834 146.817,86.400 149.403,86.400 147.600 C 86.400 147.380,86.940 147.200,87.600 147.200 C 88.260 147.200,88.800 147.020,88.800 146.800 C 88.800 146.580,89.239 146.400,89.776 146.400 C 90.313 146.400,90.864 146.220,91.000 146.000 C 91.136 145.780,91.687 145.600,92.224 145.600 C 92.761 145.600,93.200 145.420,93.200 145.200 C 93.200 144.980,93.740 144.800,94.400 144.800 C 95.060 144.800,95.600 144.620,95.600 144.400 C 95.600 144.180,96.140 144.000,96.800 144.000 C 97.460 144.000,98.000 143.820,98.000 143.600 C 98.000 143.380,98.529 143.200,99.176 143.200 C 99.823 143.200,100.464 143.020,100.600 142.800 C 100.736 142.580,101.276 142.400,101.800 142.400 C 102.324 142.400,102.848 142.245,102.965 142.056 C 103.082 141.867,103.970 141.603,104.938 141.471 C 108.319 141.007,108.791 140.581,108.743 138.039 C 108.674 134.442,110.232 131.924,113.200 130.834 C 113.970 130.551,114.960 130.179,115.400 130.007 C 115.840 129.836,119.620 128.591,123.800 127.241 C 155.358 117.048,169.832 112.312,170.495 111.965 C 170.877 111.764,171.464 111.600,171.800 111.600 C 172.136 111.600,172.723 111.436,173.105 111.235 C 173.487 111.034,178.660 109.305,184.600 107.392 C 190.540 105.479,198.010 103.061,201.200 102.019 C 204.390 100.977,209.970 99.174,213.600 98.014 C 217.230 96.854,220.560 95.758,221.000 95.578 C 221.900 95.212,225.685 93.980,228.400 93.170 C 230.956 92.408,231.124 91.839,229.986 87.800 C 229.800 87.140,229.430 85.520,229.164 84.200 C 228.898 82.880,228.421 80.810,228.103 79.600 C 227.785 78.390,227.366 76.680,227.173 75.800 C 225.358 67.540,224.308 65.127,221.349 62.423 C 218.264 59.604,213.954 58.446,210.000 59.374 M231.605 191.982 C 230.164 197.332,225.980 198.441,219.435 195.206 C 193.000 182.142,165.446 207.490,176.520 234.686 C 185.496 256.729,216.885 259.937,230.275 240.179 C 234.132 234.487,235.358 230.690,236.012 222.400 C 236.212 219.870,236.568 216.090,236.804 214.000 C 238.486 199.084,238.460 193.810,236.700 192.853 C 236.040 192.494,235.080 191.795,234.568 191.300 C 233.108 189.889,232.106 190.120,231.605 191.982 M38.000 244.583 C 18.413 249.045,7.490 271.668,16.747 288.600 C 18.288 291.419,18.966 292.569,19.221 292.800 C 19.343 292.910,19.969 293.701,20.612 294.558 C 28.515 305.076,44.341 308.571,57.879 302.787 C 64.627 299.904,68.445 301.353,69.770 307.300 C 69.905 307.905,70.202 308.400,70.430 308.400 C 71.845 308.400,81.600 300.019,81.600 298.803 C 81.600 298.577,82.140 297.828,82.800 297.137 C 83.460 296.446,84.000 295.638,84.000 295.341 C 84.000 295.043,84.180 294.800,84.400 294.800 C 84.620 294.800,84.800 294.440,84.800 294.000 C 84.800 293.560,84.980 293.200,85.200 293.200 C 85.420 293.200,85.600 292.840,85.600 292.400 C 85.600 291.960,85.735 291.599,85.900 291.597 C 86.306 291.593,87.200 289.614,87.200 288.720 C 87.200 288.324,87.380 288.000,87.600 288.000 C 87.820 288.000,88.000 287.460,88.000 286.800 C 88.000 286.140,88.180 285.600,88.400 285.600 C 88.620 285.600,88.800 284.891,88.800 284.024 C 88.800 283.157,88.980 282.336,89.200 282.200 C 89.702 281.890,89.732 277.200,89.233 277.200 C 89.031 277.200,88.462 277.853,87.969 278.651 C 84.633 284.048,75.621 281.418,75.593 275.039 C 75.505 255.531,56.726 240.318,38.000 244.583 " stroke="none" fill="#f27486" fill-rule="evenodd"></path><path id="path1" d="M357.816 117.517 C 357.704 117.629,356.530 117.688,355.207 117.648 L 352.800 117.576 352.800 119.393 C 352.800 122.098,351.295 124.383,348.806 125.459 C 348.033 125.794,347.087 126.232,346.705 126.434 C 346.323 126.635,345.738 126.800,345.405 126.800 C 345.072 126.800,344.800 126.950,344.800 127.132 C 344.800 127.315,344.305 127.719,343.700 128.029 C 340.843 129.496,335.600 136.488,335.600 138.833 C 335.600 139.229,335.420 139.664,335.200 139.800 C 334.973 139.940,334.800 141.930,334.800 144.400 C 334.800 146.870,334.973 148.860,335.200 149.000 C 335.420 149.136,335.600 149.599,335.600 150.028 C 335.600 152.084,340.521 160.000,341.799 160.000 C 341.928 160.000,342.402 160.343,342.852 160.763 C 344.156 161.977,345.342 162.148,345.009 161.073 C 344.103 158.139,343.829 156.176,343.853 152.800 C 343.890 147.762,344.292 145.965,346.543 140.800 C 348.138 137.138,353.294 131.542,356.822 129.643 C 361.231 127.269,361.132 127.304,366.958 126.094 C 368.694 125.734,369.909 125.370,369.658 125.286 C 369.406 125.202,369.200 124.540,369.200 123.816 C 369.200 123.091,368.930 122.274,368.600 122.000 C 368.270 121.726,368.000 121.243,368.000 120.927 C 368.000 120.611,367.827 120.460,367.616 120.590 C 367.405 120.720,366.910 120.664,366.516 120.464 C 363.408 118.886,362.199 118.400,361.386 118.400 C 360.870 118.400,360.349 118.241,360.230 118.048 C 359.973 117.633,358.110 117.223,357.816 117.517 M272.102 319.178 C 269.301 321.821,268.044 321.964,261.800 320.350 C 236.217 313.736,220.120 348.197,241.033 364.810 C 247.148 369.668,259.832 370.595,267.800 366.767 C 272.272 364.619,277.384 359.888,277.929 357.392 C 278.000 357.066,278.225 356.800,278.429 356.800 C 278.633 356.800,278.800 356.451,278.800 356.024 C 278.800 355.597,278.959 355.149,279.152 355.030 C 279.346 354.910,279.624 354.314,279.770 353.706 C 279.916 353.098,280.221 351.880,280.447 351.000 C 280.674 350.120,281.013 347.510,281.201 345.200 C 281.389 342.890,281.727 339.200,281.953 337.000 C 283.177 325.091,283.191 325.171,279.147 321.175 C 277.603 319.649,276.083 318.400,275.769 318.400 C 275.456 318.400,275.200 318.239,275.200 318.043 C 275.200 317.007,273.895 317.485,272.102 319.178 " stroke="none" fill="#bbeeaf" fill-rule="evenodd"></path><path id="path2" d="M294.400 16.400 C 294.400 16.620,293.944 16.800,293.387 16.800 C 292.260 16.800,289.600 19.179,289.600 20.187 C 289.600 20.524,289.420 20.800,289.200 20.800 C 288.969 20.800,288.800 22.067,288.800 23.800 L 288.800 26.800 286.624 26.800 C 285.427 26.800,284.336 26.980,284.200 27.200 C 284.064 27.420,283.369 27.600,282.655 27.600 C 281.209 27.600,278.400 29.815,278.400 30.954 C 278.400 31.309,278.220 31.600,278.000 31.600 C 277.767 31.600,277.600 32.933,277.600 34.800 C 277.600 36.667,277.767 38.000,278.000 38.000 C 278.220 38.000,278.400 38.236,278.400 38.525 C 278.400 40.299,280.740 41.396,284.825 41.537 L 288.800 41.675 288.800 45.237 C 288.800 47.346,288.963 48.800,289.200 48.800 C 289.420 48.800,289.600 49.091,289.600 49.446 C 289.600 51.363,292.376 52.800,296.078 52.800 C 298.015 52.800,299.600 52.663,299.600 52.495 C 299.600 52.327,300.005 52.012,300.500 51.795 C 300.995 51.578,301.578 50.995,301.795 50.500 C 302.012 50.005,302.327 49.600,302.495 49.600 C 302.663 49.600,302.800 49.240,302.800 48.800 C 302.800 48.360,302.980 48.000,303.200 48.000 C 303.433 48.000,303.600 46.667,303.600 44.800 L 303.600 41.600 306.826 41.600 C 310.487 41.600,312.800 40.682,312.800 39.229 C 312.800 38.993,312.980 38.800,313.200 38.800 C 313.420 38.800,313.600 38.440,313.600 38.000 C 313.600 37.560,313.780 37.200,314.000 37.200 C 314.222 37.200,314.400 36.133,314.400 34.800 C 314.400 33.467,314.222 32.400,314.000 32.400 C 313.780 32.400,313.600 32.128,313.600 31.795 C 313.600 30.506,312.005 28.400,311.029 28.400 C 310.683 28.400,310.400 28.240,310.400 28.044 C 310.400 27.677,308.812 27.319,305.500 26.940 L 303.600 26.723 303.600 24.161 C 303.600 22.720,303.425 21.600,303.200 21.600 C 302.980 21.600,302.800 21.328,302.800 20.995 C 302.800 19.706,301.205 17.600,300.229 17.600 C 299.883 17.600,299.600 17.420,299.600 17.200 C 299.600 16.980,299.060 16.800,298.400 16.800 C 297.740 16.800,297.200 16.620,297.200 16.400 C 297.200 16.180,296.570 16.000,295.800 16.000 C 295.030 16.000,294.400 16.180,294.400 16.400 M30.000 34.302 C 30.000 34.469,29.496 34.828,28.881 35.100 C 27.152 35.865,26.000 38.629,26.000 42.011 L 26.000 44.800 22.600 44.800 C 20.730 44.800,19.200 44.936,19.200 45.102 C 19.200 45.269,18.670 45.639,18.023 45.926 C 17.376 46.212,16.612 46.976,16.326 47.623 C 16.039 48.270,15.669 48.800,15.502 48.800 C 15.336 48.800,15.200 50.240,15.200 52.000 C 15.200 53.867,15.367 55.200,15.600 55.200 C 15.820 55.200,16.000 55.488,16.000 55.840 C 16.000 56.691,18.293 58.800,19.219 58.800 C 19.622 58.800,20.064 58.980,20.200 59.200 C 20.336 59.420,21.697 59.600,23.224 59.600 L 26.000 59.600 26.000 62.576 C 26.000 64.213,26.180 65.664,26.400 65.800 C 26.620 65.936,26.800 66.313,26.800 66.637 C 26.800 67.504,29.445 70.000,30.363 70.000 C 30.797 70.000,31.264 70.180,31.400 70.400 C 31.536 70.620,32.537 70.800,33.624 70.800 C 34.711 70.800,35.600 70.620,35.600 70.400 C 35.600 70.180,36.023 70.000,36.541 70.000 C 38.930 70.000,41.200 66.176,41.200 62.151 L 41.200 59.600 43.800 59.600 C 45.267 59.600,46.400 59.426,46.400 59.200 C 46.400 58.980,46.939 58.800,47.597 58.800 C 48.855 58.800,50.368 57.454,51.445 55.378 C 52.081 54.153,52.203 49.600,51.600 49.600 C 51.380 49.600,51.200 49.240,51.200 48.800 C 51.200 48.360,51.020 48.000,50.800 48.000 C 50.580 48.000,50.400 47.724,50.400 47.387 C 50.400 47.051,50.085 46.655,49.700 46.508 C 49.315 46.361,48.651 45.916,48.225 45.520 C 47.615 44.954,46.780 44.800,44.325 44.800 L 41.200 44.800 41.200 42.024 C 41.200 40.497,41.020 39.136,40.800 39.000 C 40.580 38.864,40.400 38.486,40.400 38.160 C 40.400 37.527,39.862 36.761,38.655 35.672 C 38.246 35.302,37.674 34.775,37.384 34.500 C 36.809 33.954,30.000 33.772,30.000 34.302 M357.200 42.790 C 356.870 43.009,355.745 43.191,354.700 43.194 C 353.655 43.197,352.800 43.380,352.800 43.600 C 352.800 43.820,352.080 44.000,351.200 44.000 C 350.320 44.000,349.600 44.180,349.600 44.400 C 349.600 44.620,349.060 44.800,348.400 44.800 C 347.740 44.800,347.200 44.980,347.200 45.200 C 347.200 45.420,346.768 45.600,346.240 45.600 C 343.763 45.600,341.300 49.989,341.730 53.636 C 341.961 55.587,343.183 58.800,343.694 58.800 C 343.862 58.800,344.000 59.160,344.000 59.600 C 344.000 60.040,344.180 60.400,344.400 60.400 C 344.620 60.400,344.800 60.760,344.800 61.200 C 344.800 61.640,344.980 62.000,345.200 62.000 C 345.420 62.000,345.600 62.360,345.600 62.800 C 345.600 63.240,345.780 63.600,346.000 63.600 C 346.220 63.600,346.400 63.960,346.400 64.400 C 346.400 64.840,346.580 65.200,346.800 65.200 C 347.020 65.200,347.200 65.560,347.200 66.000 C 347.200 66.440,347.380 66.800,347.600 66.800 C 347.820 66.800,348.000 67.160,348.000 67.600 C 348.000 68.040,348.180 68.400,348.400 68.400 C 348.620 68.400,348.800 68.760,348.800 69.200 C 348.800 69.640,348.980 70.000,349.200 70.000 C 349.420 70.000,349.600 70.360,349.600 70.800 C 349.600 71.240,349.780 71.600,350.000 71.600 C 350.220 71.600,350.400 71.960,350.400 72.400 C 350.400 72.840,350.536 73.200,350.702 73.200 C 350.869 73.200,351.240 73.785,351.529 74.500 C 351.817 75.215,352.221 76.113,352.426 76.495 C 352.632 76.877,352.800 77.462,352.800 77.795 C 352.800 78.128,352.980 78.400,353.200 78.400 C 353.420 78.400,353.600 78.760,353.600 79.200 C 353.600 79.640,353.780 80.000,354.000 80.000 C 354.220 80.000,354.400 80.360,354.400 80.800 C 354.400 81.240,354.580 81.600,354.800 81.600 C 355.020 81.600,355.200 82.140,355.200 82.800 C 355.200 83.460,355.380 84.000,355.600 84.000 C 355.820 84.000,356.000 84.360,356.000 84.800 C 356.000 85.240,356.180 85.600,356.400 85.600 C 356.620 85.600,356.800 86.050,356.800 86.600 C 356.800 87.150,356.980 87.600,357.200 87.600 C 357.420 87.600,357.600 88.050,357.600 88.600 C 357.600 89.150,357.780 89.600,358.000 89.600 C 358.220 89.600,358.401 90.005,358.402 90.500 C 358.404 90.995,358.674 91.916,359.002 92.546 C 359.331 93.176,359.600 94.020,359.600 94.422 C 359.600 94.824,359.744 95.242,359.921 95.351 C 360.097 95.460,360.490 96.461,360.793 97.575 C 361.096 98.689,361.492 99.600,361.672 99.600 C 361.853 99.600,362.000 100.140,362.000 100.800 C 362.000 101.460,362.180 102.000,362.400 102.000 C 362.620 102.000,362.800 102.540,362.800 103.200 C 362.800 103.860,362.980 104.400,363.200 104.400 C 363.420 104.400,363.600 104.839,363.600 105.376 C 363.600 105.913,363.780 106.464,364.000 106.600 C 364.220 106.736,364.400 107.276,364.400 107.800 C 364.400 108.324,364.580 108.864,364.800 109.000 C 365.020 109.136,365.200 109.766,365.200 110.400 C 365.200 111.034,365.380 111.664,365.600 111.800 C 365.820 111.936,366.000 112.577,366.000 113.224 C 366.000 113.871,366.180 114.400,366.400 114.400 C 366.620 114.400,366.800 115.019,366.800 115.776 C 366.800 116.533,366.980 117.264,367.200 117.400 C 367.420 117.536,367.600 118.094,367.600 118.640 C 367.600 119.187,367.783 119.851,368.007 120.117 C 369.682 122.103,370.048 122.669,370.240 123.574 C 370.360 124.138,370.733 125.680,371.068 127.000 C 371.404 128.320,371.841 130.165,372.039 131.100 C 372.641 133.935,373.133 136.108,373.604 138.000 C 376.661 150.303,372.401 158.963,361.000 163.620 C 355.848 165.724,346.688 164.800,342.556 161.760 C 329.543 152.185,331.225 132.364,345.597 125.924 C 346.588 125.479,347.940 124.864,348.600 124.556 C 350.320 123.754,351.685 121.537,351.912 119.180 C 352.017 118.082,352.260 117.086,352.452 116.968 C 353.607 116.254,350.000 112.000,348.240 112.000 C 347.668 112.000,347.200 111.820,347.200 111.600 C 347.200 110.812,343.717 111.332,341.505 112.449 C 341.123 112.642,340.538 112.800,340.205 112.800 C 339.872 112.800,339.600 112.980,339.600 113.200 C 339.600 113.420,339.240 113.600,338.800 113.600 C 338.360 113.600,338.000 113.780,338.000 114.000 C 338.000 114.220,337.640 114.400,337.200 114.400 C 336.760 114.400,336.400 114.550,336.400 114.732 C 336.400 114.915,335.905 115.319,335.300 115.630 C 334.695 115.940,333.909 116.511,333.553 116.897 C 333.197 117.284,332.710 117.600,332.470 117.600 C 331.857 117.600,327.287 122.295,326.991 123.229 C 326.856 123.653,326.607 124.000,326.437 124.000 C 326.268 124.000,325.785 124.718,325.364 125.595 C 324.944 126.473,324.465 127.193,324.300 127.195 C 324.135 127.198,324.000 127.470,324.000 127.800 C 324.000 128.130,323.820 128.400,323.600 128.400 C 323.380 128.400,323.200 128.749,323.200 129.176 C 323.200 129.603,323.020 130.064,322.800 130.200 C 322.580 130.336,322.400 130.887,322.400 131.424 C 322.400 131.961,322.220 132.400,322.000 132.400 C 321.780 132.400,321.600 132.940,321.600 133.600 C 321.600 134.260,321.420 134.800,321.200 134.800 C 320.980 134.800,320.800 135.520,320.800 136.400 C 320.800 137.280,320.620 138.000,320.400 138.000 C 320.151 138.000,320.000 140.325,320.000 144.176 C 320.000 147.863,320.161 150.452,320.400 150.600 C 320.620 150.736,320.800 151.647,320.800 152.624 C 320.800 153.601,320.980 154.400,321.200 154.400 C 321.420 154.400,321.600 154.940,321.600 155.600 C 321.600 156.260,321.780 156.800,322.000 156.800 C 322.220 156.800,322.400 157.250,322.400 157.800 C 322.400 158.350,322.580 158.800,322.800 158.800 C 323.020 158.800,323.200 159.160,323.200 159.600 C 323.200 160.040,323.380 160.400,323.600 160.400 C 323.820 160.400,324.000 160.760,324.000 161.200 C 324.000 161.640,324.180 162.000,324.400 162.000 C 324.620 162.000,324.800 162.258,324.800 162.572 C 324.800 164.007,332.794 173.200,334.041 173.200 C 334.257 173.200,334.817 173.558,335.287 173.995 C 335.756 174.432,336.739 174.902,337.470 175.040 C 338.202 175.177,338.800 175.449,338.800 175.645 C 338.800 175.840,339.160 176.000,339.600 176.000 C 340.040 176.000,340.400 176.180,340.400 176.400 C 340.400 176.620,340.940 176.800,341.600 176.800 C 342.260 176.800,342.800 176.980,342.800 177.200 C 342.800 177.420,343.419 177.600,344.176 177.600 C 344.933 177.600,345.664 177.780,345.800 178.000 C 345.949 178.241,348.737 178.400,352.824 178.400 C 357.075 178.400,359.600 178.251,359.600 178.000 C 359.600 177.780,360.500 177.600,361.600 177.600 C 362.700 177.600,363.600 177.420,363.600 177.200 C 363.600 176.980,364.140 176.800,364.800 176.800 C 365.460 176.800,366.000 176.620,366.000 176.400 C 366.000 176.180,366.362 176.000,366.805 176.000 C 367.248 176.000,367.923 175.842,368.305 175.649 C 368.687 175.456,369.630 175.000,370.400 174.637 C 371.170 174.274,372.505 173.577,373.366 173.088 C 375.236 172.028,383.200 164.270,383.200 163.509 C 383.200 163.216,383.560 162.717,384.000 162.400 C 384.440 162.083,384.800 161.503,384.800 161.112 C 384.800 160.720,384.980 160.400,385.200 160.400 C 385.420 160.400,385.600 160.040,385.600 159.600 C 385.600 159.160,385.780 158.800,386.000 158.800 C 386.220 158.800,386.400 158.350,386.400 157.800 C 386.400 157.250,386.580 156.800,386.800 156.800 C 387.020 156.800,387.200 156.260,387.200 155.600 C 387.200 154.940,387.380 154.400,387.600 154.400 C 387.820 154.400,388.000 153.601,388.000 152.624 C 388.000 151.647,388.180 150.736,388.400 150.600 C 388.632 150.457,388.800 148.263,388.800 145.376 C 388.800 142.325,388.645 140.400,388.400 140.400 C 388.180 140.400,388.000 139.500,388.000 138.400 C 388.000 137.300,387.820 136.400,387.600 136.400 C 387.380 136.400,387.200 135.680,387.200 134.800 C 387.200 133.920,387.020 133.200,386.800 133.200 C 386.580 133.200,386.400 132.480,386.400 131.600 C 386.400 130.720,386.220 130.000,386.000 130.000 C 385.780 130.000,385.600 129.190,385.600 128.200 C 385.600 127.210,385.420 126.400,385.200 126.400 C 384.980 126.400,384.800 125.680,384.800 124.800 C 384.800 123.920,384.620 123.200,384.400 123.200 C 384.180 123.200,384.000 122.480,384.000 121.600 C 384.000 120.720,383.820 120.000,383.600 120.000 C 383.380 120.000,383.200 119.280,383.200 118.400 C 383.200 117.520,383.020 116.800,382.800 116.800 C 382.580 116.800,382.400 116.080,382.400 115.200 C 382.400 114.320,382.220 113.600,382.000 113.600 C 381.780 113.600,381.600 113.060,381.600 112.400 C 381.600 111.740,381.420 111.200,381.200 111.200 C 380.980 111.200,380.800 110.570,380.800 109.800 C 380.800 109.030,380.620 108.400,380.400 108.400 C 380.180 108.400,380.000 107.860,380.000 107.200 C 380.000 106.540,379.820 106.000,379.600 106.000 C 379.380 106.000,379.200 105.471,379.200 104.824 C 379.200 104.177,379.020 103.536,378.800 103.400 C 378.580 103.264,378.400 102.724,378.400 102.200 C 378.400 101.676,378.220 101.136,378.000 101.000 C 377.780 100.864,377.600 100.324,377.600 99.800 C 377.600 99.276,377.420 98.736,377.200 98.600 C 376.980 98.464,376.800 97.924,376.800 97.400 C 376.800 96.876,376.620 96.336,376.400 96.200 C 376.180 96.064,376.000 95.601,376.000 95.171 C 376.000 94.741,375.831 94.077,375.623 93.695 C 375.416 93.313,374.938 91.920,374.561 90.600 C 374.183 89.280,373.723 88.029,373.537 87.820 C 373.352 87.611,373.200 87.026,373.200 86.520 C 373.200 86.014,373.020 85.600,372.800 85.600 C 372.580 85.600,372.400 85.161,372.400 84.624 C 372.400 84.087,372.220 83.536,372.000 83.400 C 371.780 83.264,371.600 82.803,371.600 82.376 C 371.600 81.949,371.420 81.600,371.200 81.600 C 370.980 81.600,370.800 81.328,370.800 80.995 C 370.800 80.662,370.641 80.077,370.447 79.695 C 370.252 79.313,369.871 78.460,369.600 77.800 C 369.329 77.140,368.948 76.287,368.753 75.905 C 368.559 75.523,368.400 74.938,368.400 74.605 C 368.400 74.272,368.220 74.000,368.000 74.000 C 367.780 74.000,367.600 73.640,367.600 73.200 C 367.600 72.760,367.420 72.400,367.200 72.400 C 366.980 72.400,366.800 72.040,366.800 71.600 C 366.800 71.160,366.620 70.800,366.400 70.800 C 366.180 70.800,366.000 70.528,366.000 70.195 C 366.000 69.862,365.792 69.187,365.538 68.695 C 364.567 66.818,364.400 66.393,364.400 65.805 C 364.400 65.472,364.220 65.200,364.000 65.200 C 363.780 65.200,363.600 64.840,363.600 64.400 C 363.600 63.960,363.420 63.600,363.200 63.600 C 362.980 63.600,362.800 63.240,362.800 62.800 C 362.800 62.360,362.620 62.000,362.400 62.000 C 362.180 62.000,362.000 61.640,362.000 61.200 C 362.000 60.760,361.820 60.400,361.600 60.400 C 361.380 60.400,361.200 60.130,361.200 59.800 C 361.200 59.470,361.020 59.200,360.800 59.200 C 360.580 59.200,360.400 58.840,360.400 58.400 C 360.400 57.544,368.855 57.117,369.367 57.947 C 369.486 58.138,370.687 58.420,372.037 58.572 C 373.386 58.725,374.785 58.999,375.145 59.181 C 375.505 59.363,376.700 59.937,377.800 60.456 C 378.900 60.975,379.860 61.535,379.933 61.700 C 380.007 61.865,380.412 62.000,380.833 62.000 C 381.255 62.000,381.600 62.180,381.600 62.400 C 381.600 62.620,381.843 62.800,382.141 62.800 C 382.438 62.800,383.246 63.340,383.937 64.000 C 384.628 64.660,385.388 65.200,385.628 65.200 C 385.867 65.200,386.754 65.920,387.600 66.800 C 388.446 67.680,389.421 68.400,389.769 68.400 C 390.116 68.400,390.400 68.580,390.400 68.800 C 390.400 69.031,391.667 69.200,393.400 69.200 C 395.133 69.200,396.400 69.031,396.400 68.800 C 396.400 68.580,396.678 68.400,397.018 68.400 C 398.982 68.400,399.800 66.461,399.800 61.805 L 399.800 57.373 398.313 55.887 C 397.496 55.069,396.678 54.400,396.497 54.400 C 396.316 54.400,395.372 53.680,394.400 52.800 C 393.428 51.920,392.466 51.200,392.263 51.200 C 392.060 51.200,391.603 50.871,391.247 50.470 C 390.891 50.068,390.015 49.484,389.300 49.172 C 388.585 48.860,388.000 48.469,388.000 48.302 C 388.000 48.136,387.640 48.000,387.200 48.000 C 386.760 48.000,386.400 47.820,386.400 47.600 C 386.400 47.380,386.040 47.200,385.600 47.200 C 385.160 47.200,384.800 47.020,384.800 46.800 C 384.800 46.580,384.451 46.400,384.024 46.400 C 383.597 46.400,383.136 46.220,383.000 46.000 C 382.864 45.780,382.313 45.600,381.776 45.600 C 381.239 45.600,380.800 45.420,380.800 45.200 C 380.800 44.980,380.260 44.800,379.600 44.800 C 378.940 44.800,378.400 44.620,378.400 44.400 C 378.400 44.180,377.680 44.000,376.800 44.000 C 375.920 44.000,375.200 43.837,375.200 43.639 C 375.200 42.806,358.373 42.012,357.200 42.790 M206.800 45.200 C 206.800 45.420,206.080 45.600,205.200 45.600 C 204.320 45.600,203.600 45.780,203.600 46.000 C 203.600 46.220,203.060 46.400,202.400 46.400 C 201.740 46.400,201.200 46.580,201.200 46.800 C 201.200 47.020,200.660 47.200,200.000 47.200 C 199.340 47.200,198.800 47.380,198.800 47.600 C 198.800 47.820,198.260 48.000,197.600 48.000 C 196.940 48.000,196.400 48.180,196.400 48.400 C 196.400 48.620,195.961 48.800,195.424 48.800 C 194.887 48.800,194.336 48.980,194.200 49.200 C 194.064 49.420,193.513 49.600,192.976 49.600 C 192.439 49.600,192.000 49.780,192.000 50.000 C 192.000 50.220,191.460 50.400,190.800 50.400 C 190.140 50.400,189.600 50.580,189.600 50.800 C 189.600 51.020,189.060 51.200,188.400 51.200 C 187.740 51.200,187.200 51.380,187.200 51.600 C 187.200 51.820,186.660 52.000,186.000 52.000 C 185.340 52.000,184.800 52.180,184.800 52.400 C 184.800 52.620,184.271 52.800,183.624 52.800 C 182.977 52.800,182.336 52.980,182.200 53.200 C 182.064 53.420,181.524 53.600,181.000 53.600 C 180.476 53.600,179.936 53.780,179.800 54.000 C 179.664 54.220,179.023 54.400,178.376 54.400 C 177.729 54.400,177.200 54.580,177.200 54.800 C 177.200 55.020,176.660 55.200,176.000 55.200 C 175.340 55.200,174.800 55.380,174.800 55.600 C 174.800 55.820,174.260 56.000,173.600 56.000 C 172.940 56.000,172.400 56.180,172.400 56.400 C 172.400 56.620,171.860 56.800,171.200 56.800 C 170.540 56.800,170.000 56.980,170.000 57.200 C 170.000 57.420,169.460 57.600,168.800 57.600 C 168.140 57.600,167.600 57.780,167.600 58.000 C 167.600 58.220,167.171 58.400,166.646 58.400 C 165.622 58.400,161.847 59.440,160.705 60.037 C 160.323 60.237,159.648 60.400,159.205 60.400 C 158.762 60.400,158.400 60.580,158.400 60.800 C 158.400 61.020,157.860 61.200,157.200 61.200 C 156.540 61.200,156.000 61.380,156.000 61.600 C 156.000 61.820,155.460 62.000,154.800 62.000 C 154.140 62.000,153.600 62.180,153.600 62.400 C 153.600 62.620,153.060 62.800,152.400 62.800 C 151.740 62.800,151.200 62.980,151.200 63.200 C 151.200 63.420,150.660 63.600,150.000 63.600 C 149.340 63.600,148.800 63.780,148.800 64.000 C 148.800 64.220,148.260 64.400,147.600 64.400 C 146.940 64.400,146.400 64.580,146.400 64.800 C 146.400 65.020,145.871 65.200,145.224 65.200 C 144.577 65.200,143.936 65.380,143.800 65.600 C 143.664 65.820,143.124 66.000,142.600 66.000 C 142.076 66.000,141.536 66.180,141.400 66.400 C 141.264 66.620,140.623 66.800,139.976 66.800 C 139.329 66.800,138.800 66.980,138.800 67.200 C 138.800 67.420,138.260 67.600,137.600 67.600 C 136.940 67.600,136.400 67.780,136.400 68.000 C 136.400 68.220,135.860 68.400,135.200 68.400 C 134.540 68.400,134.000 68.580,134.000 68.800 C 134.000 69.020,133.460 69.200,132.800 69.200 C 132.140 69.200,131.600 69.380,131.600 69.600 C 131.600 69.820,131.060 70.000,130.400 70.000 C 129.740 70.000,129.200 70.180,129.200 70.400 C 129.200 70.620,128.761 70.800,128.224 70.800 C 127.687 70.800,127.136 70.980,127.000 71.200 C 126.864 71.420,126.313 71.600,125.776 71.600 C 125.239 71.600,124.800 71.780,124.800 72.000 C 124.800 72.220,124.260 72.400,123.600 72.400 C 122.940 72.400,122.400 72.580,122.400 72.800 C 122.400 73.020,121.860 73.200,121.200 73.200 C 120.540 73.200,120.000 73.380,120.000 73.600 C 120.000 73.820,119.460 74.000,118.800 74.000 C 118.140 74.000,117.600 74.180,117.600 74.400 C 117.600 74.620,117.171 74.800,116.646 74.800 C 115.779 74.800,112.606 75.633,110.600 76.388 C 110.160 76.554,109.080 76.906,108.200 77.171 C 107.320 77.436,106.240 77.800,105.800 77.981 C 105.360 78.161,104.190 78.527,103.200 78.793 C 102.210 79.060,101.087 79.440,100.705 79.639 C 100.323 79.838,99.659 80.000,99.229 80.000 C 98.799 80.000,98.336 80.180,98.200 80.400 C 98.064 80.620,97.524 80.800,97.000 80.800 C 96.476 80.800,95.936 80.980,95.800 81.200 C 95.664 81.420,95.113 81.600,94.576 81.600 C 94.039 81.600,93.600 81.780,93.600 82.000 C 93.600 82.220,93.060 82.400,92.400 82.400 C 91.740 82.400,91.200 82.580,91.200 82.800 C 91.200 83.020,90.660 83.200,90.000 83.200 C 89.340 83.200,88.800 83.380,88.800 83.600 C 88.800 83.820,88.260 84.000,87.600 84.000 C 86.940 84.000,86.400 84.180,86.400 84.400 C 86.400 84.620,85.860 84.800,85.200 84.800 C 84.540 84.800,84.000 84.980,84.000 85.200 C 84.000 85.420,83.460 85.600,82.800 85.600 C 82.140 85.600,81.600 85.780,81.600 86.000 C 81.600 86.220,81.060 86.400,80.400 86.400 C 79.740 86.400,79.200 86.580,79.200 86.800 C 79.200 87.020,78.840 87.200,78.400 87.200 C 77.960 87.200,77.600 87.336,77.600 87.502 C 77.600 87.669,77.105 88.025,76.500 88.294 C 74.611 89.135,67.600 95.520,67.600 96.399 C 67.600 96.638,67.240 97.220,66.800 97.692 C 66.360 98.164,66.000 98.787,66.000 99.075 C 66.000 99.364,65.820 99.600,65.600 99.600 C 65.380 99.600,65.200 99.962,65.200 100.405 C 65.200 100.848,65.020 101.568,64.800 102.005 C 64.580 102.442,64.220 103.158,64.000 103.595 C 63.780 104.032,63.600 105.112,63.600 105.995 C 63.600 106.878,63.420 107.600,63.200 107.600 C 62.958 107.600,62.800 109.325,62.800 111.976 C 62.800 114.463,62.973 116.460,63.200 116.600 C 63.420 116.736,63.600 117.546,63.600 118.400 C 63.600 119.254,63.780 120.064,64.000 120.200 C 64.220 120.336,64.400 121.067,64.400 121.824 C 64.400 122.581,64.580 123.200,64.800 123.200 C 65.020 123.200,65.200 123.830,65.200 124.600 C 65.200 125.370,65.380 126.000,65.600 126.000 C 65.820 126.000,66.000 126.720,66.000 127.600 C 66.000 128.480,66.180 129.200,66.400 129.200 C 66.620 129.200,66.800 129.909,66.800 130.776 C 66.800 131.643,66.980 132.464,67.200 132.600 C 67.420 132.736,67.600 133.546,67.600 134.400 C 67.600 135.254,67.780 136.064,68.000 136.200 C 68.220 136.336,68.400 137.157,68.400 138.024 C 68.400 138.891,68.580 139.600,68.800 139.600 C 69.020 139.600,69.200 140.410,69.200 141.400 C 69.200 142.390,69.380 143.200,69.600 143.200 C 69.820 143.200,70.000 144.100,70.000 145.200 C 70.000 146.300,70.180 147.200,70.400 147.200 C 70.620 147.200,70.800 148.100,70.800 149.200 C 70.800 150.300,70.980 151.200,71.200 151.200 C 71.420 151.200,71.600 152.190,71.600 153.400 C 71.600 154.610,71.780 155.600,72.000 155.600 C 72.220 155.600,72.400 156.489,72.400 157.576 C 72.400 158.663,72.580 159.664,72.800 159.800 C 73.020 159.936,73.200 161.207,73.200 162.624 C 73.200 164.075,73.375 165.200,73.600 165.200 C 73.822 165.200,74.000 166.268,74.000 167.605 C 74.000 168.928,74.170 170.323,74.378 170.705 C 74.586 171.087,74.963 174.010,75.216 177.200 C 75.470 180.390,75.845 184.890,76.050 187.200 C 77.019 198.121,77.263 204.446,77.432 223.100 C 77.532 234.155,77.508 243.200,77.379 243.200 C 77.249 243.200,76.902 242.975,76.607 242.700 C 76.313 242.425,75.232 241.480,74.206 240.600 C 73.180 239.720,71.912 238.595,71.388 238.100 C 70.865 237.605,70.198 237.200,69.906 237.200 C 69.615 237.200,69.117 236.840,68.800 236.400 C 68.483 235.960,67.903 235.600,67.512 235.600 C 67.120 235.600,66.800 235.420,66.800 235.200 C 66.800 234.980,66.440 234.800,66.000 234.800 C 65.560 234.800,65.200 234.620,65.200 234.400 C 65.200 234.180,64.840 234.000,64.400 234.000 C 63.960 234.000,63.600 233.820,63.600 233.600 C 63.600 233.380,63.240 233.200,62.800 233.200 C 62.360 233.200,62.000 233.020,62.000 232.800 C 62.000 232.580,61.460 232.400,60.800 232.400 C 60.140 232.400,59.600 232.220,59.600 232.000 C 59.600 231.780,59.060 231.600,58.400 231.600 C 57.740 231.600,57.200 231.420,57.200 231.200 C 57.200 230.980,56.491 230.800,55.624 230.800 C 54.757 230.800,53.936 230.620,53.800 230.400 C 53.664 230.180,52.303 230.000,50.776 230.000 C 49.192 230.000,48.000 229.828,48.000 229.600 C 48.000 229.369,46.741 229.200,45.024 229.200 C 43.387 229.200,41.936 229.380,41.800 229.600 C 41.664 229.820,40.134 230.000,38.400 230.000 C 36.666 230.000,35.136 230.180,35.000 230.400 C 34.864 230.620,34.144 230.800,33.400 230.800 C 32.656 230.800,31.936 230.980,31.800 231.200 C 31.664 231.420,31.023 231.600,30.376 231.600 C 29.729 231.600,29.200 231.780,29.200 232.000 C 29.200 232.220,28.750 232.400,28.200 232.400 C 27.650 232.400,27.200 232.580,27.200 232.800 C 27.200 233.020,26.840 233.200,26.400 233.200 C 25.960 233.200,25.600 233.380,25.600 233.600 C 25.600 233.820,25.240 234.000,24.800 234.000 C 24.360 234.000,24.000 234.180,24.000 234.400 C 24.000 234.620,23.640 234.800,23.200 234.800 C 22.760 234.800,22.400 234.980,22.400 235.200 C 22.400 235.420,22.080 235.600,21.688 235.600 C 21.297 235.600,20.717 235.960,20.400 236.400 C 20.083 236.840,19.543 237.200,19.200 237.200 C 18.857 237.200,18.317 237.560,18.000 238.000 C 17.683 238.440,17.193 238.800,16.912 238.800 C 16.630 238.800,16.400 238.980,16.400 239.200 C 16.400 239.420,16.224 239.600,16.008 239.600 C 15.364 239.600,9.575 245.304,8.903 246.600 C 8.561 247.260,7.948 248.091,7.541 248.447 C 7.133 248.803,6.800 249.305,6.800 249.564 C 6.800 249.822,6.440 250.420,6.000 250.892 C 5.560 251.364,5.200 251.987,5.200 252.275 C 5.200 252.564,5.020 252.800,4.800 252.800 C 4.580 252.800,4.400 253.160,4.400 253.600 C 4.400 254.040,4.220 254.400,4.000 254.400 C 3.780 254.400,3.600 254.760,3.600 255.200 C 3.600 255.640,3.420 256.000,3.200 256.000 C 2.980 256.000,2.800 256.540,2.800 257.200 C 2.800 257.860,2.620 258.400,2.400 258.400 C 2.180 258.400,2.000 258.760,2.000 259.200 C 2.000 259.640,1.820 260.000,1.600 260.000 C 1.380 260.000,1.200 260.615,1.200 261.367 C 1.200 262.118,0.975 262.808,0.700 262.900 C -0.027 263.142,-0.027 286.858,0.700 287.100 C 0.975 287.192,1.200 287.792,1.200 288.433 C 1.200 289.075,1.380 289.600,1.600 289.600 C 1.820 289.600,2.000 290.050,2.000 290.600 C 2.000 291.150,2.180 291.600,2.400 291.600 C 2.620 291.600,2.800 292.039,2.800 292.576 C 2.800 293.113,2.980 293.664,3.200 293.800 C 3.420 293.936,3.600 294.397,3.600 294.824 C 3.600 295.251,3.780 295.600,4.000 295.600 C 4.220 295.600,4.400 295.836,4.400 296.125 C 4.400 296.413,4.760 297.036,5.200 297.508 C 5.640 297.980,6.000 298.604,6.000 298.895 C 6.000 299.186,6.360 299.683,6.800 300.000 C 7.240 300.317,7.600 300.882,7.600 301.255 C 7.600 301.628,7.735 301.993,7.900 302.067 C 8.065 302.140,8.914 303.100,9.787 304.200 C 11.540 306.409,13.978 308.800,14.478 308.800 C 14.654 308.800,15.541 309.520,16.448 310.400 C 17.355 311.280,18.262 312.000,18.465 312.000 C 18.668 312.000,19.220 312.360,19.692 312.800 C 20.164 313.240,20.787 313.600,21.075 313.600 C 21.364 313.600,21.600 313.780,21.600 314.000 C 21.600 314.220,21.960 314.400,22.400 314.400 C 22.840 314.400,23.200 314.580,23.200 314.800 C 23.200 315.020,23.560 315.200,24.000 315.200 C 24.440 315.200,24.801 315.335,24.803 315.500 C 24.807 315.906,26.786 316.800,27.680 316.800 C 28.076 316.800,28.400 316.980,28.400 317.200 C 28.400 317.420,28.839 317.600,29.376 317.600 C 29.913 317.600,30.464 317.780,30.600 318.000 C 30.736 318.220,31.377 318.400,32.024 318.400 C 32.671 318.400,33.200 318.580,33.200 318.800 C 33.200 319.020,34.100 319.200,35.200 319.200 C 36.300 319.200,37.200 319.380,37.200 319.600 C 37.200 319.852,39.933 320.000,44.600 320.000 C 49.267 320.000,52.000 319.852,52.000 319.600 C 52.000 319.380,52.799 319.200,53.776 319.200 C 54.753 319.200,55.664 319.020,55.800 318.800 C 55.936 318.580,56.667 318.400,57.424 318.400 C 58.181 318.400,58.800 318.220,58.800 318.000 C 58.800 317.780,59.239 317.600,59.776 317.600 C 60.313 317.600,60.864 317.420,61.000 317.200 C 61.136 316.980,61.597 316.800,62.024 316.800 C 62.451 316.800,62.800 316.620,62.800 316.400 C 62.800 316.180,63.160 316.000,63.600 316.000 C 64.040 316.000,64.400 315.820,64.400 315.600 C 64.400 315.380,64.760 315.200,65.200 315.200 C 65.640 315.200,66.000 315.020,66.000 314.800 C 66.000 314.580,66.278 314.400,66.618 314.400 C 68.620 314.400,70.988 309.227,69.648 307.780 C 69.455 307.571,69.084 306.734,68.824 305.920 C 67.489 301.740,63.590 300.673,58.400 303.069 C 54.991 304.642,54.889 304.676,49.547 306.014 C 46.830 306.694,36.724 306.047,36.174 305.158 C 36.052 304.961,35.601 304.800,35.171 304.800 C 34.741 304.800,34.077 304.650,33.695 304.466 C 33.313 304.282,31.830 303.562,30.400 302.866 C 14.873 295.309,8.619 276.205,16.562 260.600 C 19.199 255.420,22.406 251.828,27.200 248.686 C 29.671 247.067,30.489 246.632,32.800 245.707 C 33.350 245.487,34.250 245.117,34.800 244.884 C 36.854 244.014,38.355 243.856,44.400 243.873 C 50.612 243.890,53.416 244.179,53.827 244.844 C 53.948 245.040,54.352 245.199,54.724 245.197 C 55.993 245.190,61.956 248.492,64.572 250.650 C 69.389 254.623,73.206 260.463,74.735 266.200 C 75.534 269.197,75.697 270.199,75.869 273.200 C 76.116 277.518,76.966 279.076,79.880 280.552 C 82.699 281.979,86.497 280.582,87.865 277.614 C 88.269 276.738,88.796 276.016,89.036 276.010 C 89.861 275.991,90.400 273.956,90.400 270.861 C 90.400 269.156,90.567 267.589,90.772 267.380 C 90.977 267.171,91.273 262.725,91.430 257.500 C 91.588 252.275,91.871 248.000,92.058 248.000 C 92.246 248.000,92.400 237.470,92.400 224.600 C 92.400 209.267,92.262 201.200,92.000 201.200 C 91.757 201.200,91.586 199.276,91.564 196.300 C 91.528 191.355,91.118 184.980,90.386 178.000 C 90.167 175.910,89.886 173.030,89.761 171.600 C 89.637 170.170,89.370 168.829,89.168 168.620 C 88.965 168.411,88.800 167.142,88.800 165.800 C 88.800 164.458,88.636 163.189,88.435 162.980 C 88.235 162.771,87.965 161.565,87.835 160.300 C 87.706 159.035,87.494 156.965,87.365 155.700 C 87.235 154.435,86.965 153.229,86.765 153.020 C 86.564 152.811,86.400 151.776,86.400 150.720 C 86.400 149.664,86.265 148.794,86.100 148.787 C 85.231 148.751,84.248 146.266,83.371 141.893 C 82.315 136.626,81.740 133.925,81.138 131.400 C 80.928 130.520,80.602 129.080,80.413 128.200 C 80.225 127.320,79.680 125.160,79.204 123.400 C 76.447 113.223,76.274 110.070,78.247 105.980 C 80.300 101.725,82.639 100.166,90.800 97.617 C 93.770 96.689,96.513 95.766,96.895 95.565 C 97.277 95.364,97.941 95.200,98.371 95.200 C 98.801 95.200,99.264 95.020,99.400 94.800 C 99.536 94.580,100.076 94.400,100.600 94.400 C 101.124 94.400,101.664 94.220,101.800 94.000 C 101.936 93.780,102.476 93.600,103.000 93.600 C 103.524 93.600,104.064 93.420,104.200 93.200 C 104.336 92.980,104.876 92.800,105.400 92.800 C 105.924 92.800,106.464 92.620,106.600 92.400 C 106.736 92.180,107.199 92.000,107.629 92.000 C 108.059 92.000,108.723 91.837,109.105 91.638 C 109.729 91.314,122.236 87.244,143.800 80.348 C 147.980 79.011,151.713 77.756,152.095 77.559 C 152.477 77.361,153.141 77.200,153.571 77.200 C 154.001 77.200,154.464 77.020,154.600 76.800 C 154.736 76.580,155.276 76.400,155.800 76.400 C 156.324 76.400,156.864 76.220,157.000 76.000 C 157.136 75.780,157.676 75.600,158.200 75.600 C 158.724 75.600,159.264 75.420,159.400 75.200 C 159.536 74.980,160.076 74.800,160.600 74.800 C 161.124 74.800,161.664 74.620,161.800 74.400 C 161.936 74.180,162.399 74.000,162.829 74.000 C 163.259 74.000,163.923 73.837,164.305 73.638 C 164.910 73.322,174.025 70.342,191.600 64.714 C 194.350 63.833,196.913 62.952,197.295 62.756 C 197.677 62.560,198.341 62.400,198.771 62.400 C 199.201 62.400,199.664 62.220,199.800 62.000 C 199.936 61.780,200.399 61.600,200.829 61.600 C 201.259 61.600,201.923 61.438,202.305 61.241 C 202.687 61.044,204.350 60.484,206.000 59.997 C 207.650 59.511,209.413 58.952,209.919 58.756 C 214.042 57.157,220.802 59.902,223.849 64.413 C 225.359 66.649,225.687 67.547,227.200 73.600 C 227.420 74.480,227.780 75.920,228.000 76.800 C 228.220 77.680,228.569 79.075,228.775 79.900 C 229.198 81.594,229.739 83.971,230.436 87.200 C 230.697 88.410,231.048 89.974,231.217 90.677 C 231.673 92.581,231.235 92.854,224.000 95.177 C 220.370 96.342,217.040 97.441,216.600 97.619 C 216.160 97.797,214.630 98.301,213.200 98.739 C 206.543 100.780,188.926 106.509,188.305 106.835 C 187.923 107.036,187.259 107.200,186.829 107.200 C 186.399 107.200,185.936 107.380,185.800 107.600 C 185.664 107.820,185.124 108.000,184.600 108.000 C 184.076 108.000,183.536 108.180,183.400 108.400 C 183.264 108.620,182.724 108.800,182.200 108.800 C 181.676 108.800,181.136 108.980,181.000 109.200 C 180.864 109.420,180.401 109.600,179.971 109.600 C 179.541 109.600,178.877 109.763,178.495 109.963 C 177.903 110.273,172.349 112.089,154.200 117.909 C 152.440 118.474,150.100 119.241,149.000 119.614 C 147.900 119.988,145.740 120.686,144.200 121.167 C 142.660 121.648,141.040 122.191,140.600 122.375 C 140.160 122.559,138.990 122.930,138.000 123.200 C 137.010 123.470,135.840 123.839,135.400 124.019 C 134.960 124.200,133.880 124.561,133.000 124.823 C 132.120 125.084,131.087 125.456,130.705 125.649 C 130.323 125.842,129.736 126.000,129.400 126.000 C 129.064 126.000,128.477 126.162,128.095 126.361 C 127.713 126.560,126.590 126.951,125.600 127.231 C 124.610 127.510,123.629 127.888,123.420 128.070 C 123.211 128.251,122.714 128.400,122.315 128.400 C 121.916 128.400,121.277 128.559,120.895 128.754 C 120.513 128.948,118.328 129.716,116.040 130.459 C 110.736 132.183,109.621 133.324,109.413 137.245 C 109.338 138.650,109.160 140.088,109.018 140.440 C 108.586 141.514,111.394 144.000,113.040 144.000 C 113.788 144.000,114.400 144.180,114.400 144.400 C 114.400 144.620,114.940 144.800,115.600 144.800 C 116.260 144.800,116.800 144.620,116.800 144.400 C 116.800 144.180,117.520 144.000,118.400 144.000 C 119.280 144.000,120.000 143.820,120.000 143.600 C 120.000 143.380,120.540 143.200,121.200 143.200 C 121.860 143.200,122.400 143.020,122.400 142.800 C 122.400 142.580,122.839 142.400,123.376 142.400 C 123.913 142.400,124.454 142.237,124.577 142.037 C 124.700 141.838,125.700 141.551,126.800 141.400 C 127.900 141.249,128.900 140.962,129.023 140.763 C 129.146 140.563,129.676 140.400,130.200 140.400 C 130.724 140.400,131.264 140.220,131.400 140.000 C 131.536 139.780,132.177 139.600,132.824 139.600 C 133.471 139.600,134.000 139.420,134.000 139.200 C 134.000 138.980,134.540 138.800,135.200 138.800 C 135.860 138.800,136.400 138.620,136.400 138.400 C 136.400 138.180,136.940 138.000,137.600 138.000 C 138.260 138.000,138.800 137.820,138.800 137.600 C 138.800 137.380,139.239 137.200,139.776 137.200 C 140.313 137.200,140.864 137.020,141.000 136.800 C 141.136 136.580,141.599 136.400,142.029 136.400 C 142.459 136.400,143.123 136.238,143.505 136.039 C 143.887 135.840,145.010 135.463,146.000 135.200 C 146.990 134.937,148.113 134.560,148.495 134.361 C 148.877 134.162,149.541 134.000,149.971 134.000 C 150.401 134.000,150.864 133.820,151.000 133.600 C 151.136 133.380,151.676 133.200,152.200 133.200 C 152.724 133.200,153.264 133.020,153.400 132.800 C 153.536 132.580,154.076 132.400,154.600 132.400 C 155.124 132.400,155.664 132.220,155.800 132.000 C 155.936 131.780,156.487 131.600,157.024 131.600 C 157.561 131.600,158.000 131.420,158.000 131.200 C 158.000 130.980,158.540 130.800,159.200 130.800 C 159.860 130.800,160.400 130.620,160.400 130.400 C 160.400 130.180,160.940 130.000,161.600 130.000 C 162.260 130.000,162.800 129.820,162.800 129.600 C 162.800 129.380,163.340 129.200,164.000 129.200 C 164.660 129.200,165.200 129.020,165.200 128.800 C 165.200 128.580,165.740 128.400,166.400 128.400 C 167.060 128.400,167.600 128.220,167.600 128.000 C 167.600 127.780,168.140 127.600,168.800 127.600 C 169.460 127.600,170.000 127.420,170.000 127.200 C 170.000 126.980,170.540 126.800,171.200 126.800 C 171.860 126.800,172.400 126.620,172.400 126.400 C 172.400 126.180,172.940 126.000,173.600 126.000 C 174.260 126.000,174.800 125.833,174.800 125.629 C 174.800 125.425,175.790 125.134,177.000 124.983 C 178.210 124.832,179.200 124.549,179.200 124.354 C 179.200 124.159,179.605 123.998,180.100 123.995 C 180.595 123.992,182.530 123.454,184.400 122.800 C 186.270 122.146,188.115 121.608,188.500 121.605 C 188.885 121.602,189.200 121.420,189.200 121.200 C 189.200 120.980,189.740 120.800,190.400 120.800 C 191.060 120.800,191.600 120.620,191.600 120.400 C 191.600 120.180,192.140 120.000,192.800 120.000 C 193.460 120.000,194.000 119.820,194.000 119.600 C 194.000 119.380,194.540 119.200,195.200 119.200 C 195.860 119.200,196.400 119.020,196.400 118.800 C 196.400 118.580,196.940 118.400,197.600 118.400 C 198.260 118.400,198.800 118.220,198.800 118.000 C 198.800 117.780,199.340 117.600,200.000 117.600 C 200.660 117.600,201.200 117.420,201.200 117.200 C 201.200 116.980,201.740 116.800,202.400 116.800 C 203.060 116.800,203.600 116.620,203.600 116.400 C 203.600 116.180,204.140 116.000,204.800 116.000 C 205.460 116.000,206.000 115.820,206.000 115.600 C 206.000 115.380,206.439 115.200,206.976 115.200 C 207.513 115.200,208.064 115.020,208.200 114.800 C 208.336 114.580,208.887 114.400,209.424 114.400 C 209.961 114.400,210.400 114.220,210.400 114.000 C 210.400 113.780,210.940 113.600,211.600 113.600 C 212.260 113.600,212.800 113.420,212.800 113.200 C 212.800 112.980,213.329 112.800,213.976 112.800 C 214.623 112.800,215.264 112.620,215.400 112.400 C 215.536 112.180,216.177 112.000,216.824 112.000 C 217.471 112.000,218.000 111.820,218.000 111.600 C 218.000 111.380,218.540 111.200,219.200 111.200 C 219.860 111.200,220.400 111.020,220.400 110.800 C 220.400 110.580,220.940 110.400,221.600 110.400 C 222.260 110.400,222.800 110.220,222.800 110.000 C 222.800 109.780,223.340 109.600,224.000 109.600 C 224.660 109.600,225.200 109.420,225.200 109.200 C 225.200 108.980,225.627 108.800,226.148 108.800 C 226.978 108.800,230.467 107.809,232.500 106.995 C 233.117 106.748,233.200 106.981,233.200 108.957 C 233.200 110.191,233.380 111.200,233.600 111.200 C 233.822 111.200,234.000 112.259,234.000 113.576 C 234.000 114.883,234.180 116.064,234.400 116.200 C 234.620 116.336,234.800 117.686,234.800 119.200 C 234.800 120.714,234.980 122.064,235.200 122.200 C 235.420 122.336,235.600 123.787,235.600 125.424 C 235.600 127.141,235.769 128.400,236.000 128.400 C 236.240 128.400,236.400 129.992,236.400 132.376 C 236.400 134.596,236.577 136.462,236.800 136.600 C 237.030 136.742,237.200 138.863,237.200 141.600 C 237.200 144.337,237.370 146.458,237.600 146.600 C 237.848 146.753,238.000 150.330,238.000 156.000 C 238.000 161.670,238.152 165.247,238.400 165.400 C 238.643 165.550,238.800 168.463,238.800 172.800 C 238.800 177.137,238.643 180.050,238.400 180.200 C 237.897 180.511,237.858 193.975,238.357 195.286 C 238.698 196.184,238.488 200.707,237.627 211.000 C 237.425 213.420,237.163 216.030,237.045 216.800 C 236.926 217.570,236.624 220.540,236.373 223.400 C 235.708 230.955,234.322 235.220,230.895 240.255 C 229.342 242.536,224.559 247.600,223.957 247.600 C 223.792 247.600,223.386 247.871,223.055 248.203 C 221.899 249.358,216.581 251.934,214.000 252.589 C 212.570 252.951,210.749 253.417,209.954 253.624 C 206.650 254.483,200.350 253.959,195.000 252.380 C 190.646 251.096,184.357 246.975,181.697 243.664 C 180.874 242.639,180.098 241.710,179.974 241.600 C 178.545 240.338,175.163 233.653,174.611 231.000 C 173.247 224.448,173.277 219.110,174.708 213.594 C 175.132 211.962,177.131 207.267,177.600 206.800 C 177.711 206.690,178.050 206.116,178.355 205.525 C 180.607 201.152,191.399 192.800,194.798 192.800 C 195.213 192.800,195.652 192.640,195.773 192.444 C 196.600 191.106,213.400 191.106,214.227 192.444 C 214.348 192.640,214.781 192.800,215.189 192.800 C 216.007 192.800,220.921 195.186,221.133 195.686 C 221.207 195.859,221.601 196.000,222.010 196.000 C 222.418 196.000,222.864 196.180,223.000 196.400 C 223.136 196.620,224.036 196.800,225.000 196.800 C 225.964 196.800,226.864 196.620,227.000 196.400 C 227.136 196.180,227.519 196.000,227.852 196.000 C 228.991 196.000,231.200 192.981,231.200 191.426 C 231.200 190.848,231.470 190.271,231.800 190.145 C 233.134 189.633,231.347 185.142,229.500 184.365 C 228.895 184.111,228.400 183.745,228.400 183.551 C 228.400 183.358,228.040 183.200,227.600 183.200 C 227.160 183.200,226.800 183.020,226.800 182.800 C 226.800 182.580,226.455 182.400,226.033 182.400 C 225.612 182.400,225.207 182.265,225.133 182.100 C 224.912 181.601,221.578 180.000,220.762 180.000 C 220.343 180.000,220.000 179.820,220.000 179.600 C 220.000 179.380,219.460 179.200,218.800 179.200 C 218.140 179.200,217.600 179.020,217.600 178.800 C 217.600 178.580,216.880 178.400,216.000 178.400 C 215.120 178.400,214.400 178.220,214.400 178.000 C 214.400 177.772,213.208 177.600,211.624 177.600 C 210.097 177.600,208.736 177.420,208.600 177.200 C 208.464 176.980,206.844 176.800,205.000 176.800 C 203.156 176.800,201.536 176.980,201.400 177.200 C 201.264 177.420,200.004 177.600,198.600 177.600 C 197.196 177.600,195.936 177.780,195.800 178.000 C 195.664 178.220,194.944 178.400,194.200 178.400 C 193.456 178.400,192.736 178.580,192.600 178.800 C 192.464 179.020,191.924 179.200,191.400 179.200 C 190.876 179.200,190.336 179.380,190.200 179.600 C 190.064 179.820,189.513 180.000,188.976 180.000 C 188.439 180.000,188.000 180.180,188.000 180.400 C 188.000 180.620,187.728 180.800,187.395 180.800 C 186.749 180.800,186.114 181.071,184.200 182.164 C 183.540 182.541,182.685 182.949,182.300 183.071 C 181.915 183.193,181.600 183.452,181.600 183.647 C 181.600 183.841,181.280 184.000,180.888 184.000 C 180.497 184.000,179.917 184.360,179.600 184.800 C 179.283 185.240,178.775 185.600,178.472 185.600 C 178.169 185.600,177.417 186.140,176.800 186.800 C 176.183 187.460,175.568 188.000,175.432 188.000 C 175.110 188.000,170.000 193.110,170.000 193.432 C 170.000 193.568,169.460 194.183,168.800 194.800 C 168.140 195.417,167.600 196.169,167.600 196.472 C 167.600 196.775,167.240 197.283,166.800 197.600 C 166.360 197.917,166.000 198.497,166.000 198.888 C 166.000 199.280,165.820 199.600,165.600 199.600 C 165.380 199.600,165.200 199.960,165.200 200.400 C 165.200 200.840,165.020 201.200,164.800 201.200 C 164.580 201.200,164.400 201.560,164.400 202.000 C 164.400 202.440,164.220 202.800,164.000 202.800 C 163.780 202.800,163.600 203.160,163.600 203.600 C 163.600 204.040,163.420 204.400,163.200 204.400 C 162.980 204.400,162.800 204.749,162.800 205.176 C 162.800 205.603,162.620 206.064,162.400 206.200 C 162.180 206.336,162.000 206.876,162.000 207.400 C 162.000 207.924,161.820 208.464,161.600 208.600 C 161.380 208.736,161.200 209.366,161.200 210.000 C 161.200 210.634,161.020 211.264,160.800 211.400 C 160.580 211.536,160.400 212.436,160.400 213.400 C 160.400 214.364,160.220 215.264,160.000 215.400 C 159.463 215.732,159.463 228.668,160.000 229.000 C 160.220 229.136,160.400 230.137,160.400 231.224 C 160.400 232.311,160.580 233.200,160.800 233.200 C 161.020 233.200,161.200 233.920,161.200 234.800 C 161.200 235.680,161.380 236.400,161.600 236.400 C 161.820 236.400,162.000 236.762,162.000 237.205 C 162.000 237.648,162.180 238.368,162.400 238.805 C 162.620 239.242,162.980 239.958,163.200 240.395 C 163.420 240.832,163.600 241.462,163.600 241.795 C 163.600 242.128,163.780 242.400,164.000 242.400 C 164.220 242.400,164.400 242.760,164.400 243.200 C 164.400 243.640,164.558 244.000,164.751 244.000 C 164.945 244.000,165.327 244.540,165.600 245.200 C 165.873 245.860,166.255 246.400,166.449 246.400 C 166.642 246.400,166.800 246.720,166.800 247.112 C 166.800 247.503,167.160 248.083,167.600 248.400 C 168.040 248.717,168.400 249.204,168.400 249.481 C 168.400 250.125,177.095 258.800,177.740 258.800 C 178.006 258.800,178.483 259.160,178.800 259.600 C 179.117 260.040,179.614 260.400,179.905 260.400 C 180.196 260.400,180.820 260.760,181.292 261.200 C 181.764 261.640,182.387 262.000,182.675 262.000 C 182.964 262.000,183.200 262.180,183.200 262.400 C 183.200 262.620,183.560 262.800,184.000 262.800 C 184.440 262.800,184.800 262.980,184.800 263.200 C 184.800 263.420,185.160 263.600,185.600 263.600 C 186.040 263.600,186.400 263.780,186.400 264.000 C 186.400 264.220,186.940 264.400,187.600 264.400 C 188.260 264.400,188.800 264.580,188.800 264.800 C 188.800 265.020,189.340 265.200,190.000 265.200 C 190.660 265.200,191.200 265.380,191.200 265.600 C 191.200 265.820,191.740 266.000,192.400 266.000 C 193.060 266.000,193.600 266.180,193.600 266.400 C 193.600 266.620,194.489 266.800,195.576 266.800 C 196.663 266.800,197.664 266.980,197.800 267.200 C 198.135 267.742,212.000 267.742,212.000 267.200 C 212.000 266.980,212.900 266.800,214.000 266.800 C 215.100 266.800,216.000 266.620,216.000 266.400 C 216.000 266.180,216.720 266.000,217.600 266.000 C 218.480 266.000,219.200 265.820,219.200 265.600 C 219.200 265.380,219.639 265.200,220.176 265.200 C 220.713 265.200,221.264 265.020,221.400 264.800 C 221.536 264.580,221.997 264.400,222.424 264.400 C 222.851 264.400,223.200 264.220,223.200 264.000 C 223.200 263.780,223.560 263.600,224.000 263.600 C 224.440 263.600,224.800 263.454,224.800 263.275 C 224.800 263.096,225.430 262.702,226.200 262.400 C 226.970 262.098,227.600 261.704,227.600 261.525 C 227.600 261.346,227.960 261.200,228.400 261.200 C 228.840 261.200,229.200 261.050,229.200 260.868 C 229.200 260.685,229.695 260.280,230.300 259.968 C 230.905 259.655,231.624 259.220,231.897 259.000 C 232.171 258.780,233.431 257.802,234.697 256.828 C 236.883 255.146,239.486 252.409,240.800 250.413 C 241.130 249.912,241.625 249.267,241.900 248.980 C 242.175 248.692,242.400 248.257,242.400 248.012 C 242.400 247.767,242.760 247.180,243.200 246.708 C 243.640 246.236,244.000 245.613,244.000 245.325 C 244.000 245.036,244.180 244.800,244.400 244.800 C 244.620 244.800,244.800 244.440,244.800 244.000 C 244.800 243.560,244.980 243.200,245.200 243.200 C 245.420 243.200,245.600 242.840,245.600 242.400 C 245.600 241.960,245.780 241.600,246.000 241.600 C 246.220 241.600,246.400 241.240,246.400 240.800 C 246.400 240.360,246.580 240.000,246.800 240.000 C 247.020 240.000,247.200 239.550,247.200 239.000 C 247.200 238.450,247.380 238.000,247.600 238.000 C 247.820 238.000,248.000 237.471,248.000 236.824 C 248.000 236.177,248.180 235.536,248.400 235.400 C 248.620 235.264,248.800 234.533,248.800 233.776 C 248.800 233.019,248.980 232.400,249.200 232.400 C 249.420 232.400,249.600 232.040,249.600 231.600 C 249.600 231.160,249.420 230.800,249.200 230.800 C 248.980 230.800,248.800 230.260,248.800 229.600 C 248.800 228.940,248.980 228.400,249.200 228.400 C 249.435 228.400,249.600 227.000,249.600 225.000 C 249.600 223.000,249.765 221.600,250.000 221.600 C 250.220 221.600,250.400 220.826,250.400 219.880 C 250.400 218.934,250.568 217.989,250.773 217.780 C 251.145 217.400,251.437 213.876,251.816 205.200 C 251.926 202.670,252.191 200.240,252.405 199.800 C 253.071 198.428,253.836 162.476,253.213 161.853 C 252.955 161.595,252.800 158.248,252.800 152.920 C 252.800 147.507,252.654 144.400,252.400 144.400 C 252.155 144.400,252.000 142.475,252.000 139.424 C 252.000 136.537,251.832 134.343,251.600 134.200 C 251.380 134.064,251.200 132.354,251.200 130.400 C 251.200 128.446,251.020 126.736,250.800 126.600 C 250.580 126.464,250.400 124.923,250.400 123.176 C 250.400 121.325,250.233 120.000,250.000 120.000 C 249.769 120.000,249.600 118.741,249.600 117.024 C 249.600 115.387,249.420 113.936,249.200 113.800 C 248.980 113.664,248.800 112.584,248.800 111.400 C 248.800 110.216,248.620 109.136,248.400 109.000 C 248.180 108.864,248.000 107.593,248.000 106.176 C 248.000 104.725,247.825 103.600,247.600 103.600 C 247.380 103.600,247.200 102.621,247.200 101.424 C 247.200 100.227,247.020 99.136,246.800 99.000 C 246.580 98.864,246.400 97.863,246.400 96.776 C 246.400 95.689,246.220 94.800,246.000 94.800 C 245.780 94.800,245.600 93.990,245.600 93.000 C 245.600 92.010,245.420 91.200,245.200 91.200 C 244.980 91.200,244.800 90.300,244.800 89.200 C 244.800 88.100,244.620 87.200,244.400 87.200 C 244.180 87.200,244.000 86.300,244.000 85.200 C 244.000 84.100,243.820 83.200,243.600 83.200 C 243.380 83.200,243.200 82.480,243.200 81.600 C 243.200 80.720,243.020 80.000,242.800 80.000 C 242.580 80.000,242.400 79.190,242.400 78.200 C 242.400 77.210,242.256 76.400,242.079 76.400 C 241.903 76.400,241.560 75.095,241.317 73.500 C 241.074 71.905,240.665 69.790,240.408 68.800 C 240.152 67.810,239.845 66.413,239.727 65.696 C 239.608 64.979,239.351 64.294,239.156 64.173 C 238.960 64.052,238.800 63.524,238.800 63.000 C 238.800 62.476,238.620 61.936,238.400 61.800 C 238.180 61.664,238.000 61.203,238.000 60.776 C 238.000 60.349,237.820 60.000,237.600 60.000 C 237.380 60.000,237.200 59.680,237.200 59.288 C 237.200 58.897,236.840 58.317,236.400 58.000 C 235.960 57.683,235.600 57.187,235.600 56.898 C 235.600 56.610,235.015 55.775,234.300 55.045 C 233.585 54.314,232.735 53.330,232.412 52.858 C 232.088 52.386,231.669 52.000,231.480 52.000 C 231.292 52.000,230.446 51.280,229.600 50.400 C 228.754 49.520,227.779 48.800,227.431 48.800 C 227.084 48.800,226.800 48.620,226.800 48.400 C 226.800 48.180,226.440 48.000,226.000 48.000 C 225.560 48.000,225.199 47.865,225.197 47.700 C 225.193 47.294,223.214 46.400,222.320 46.400 C 221.924 46.400,221.600 46.220,221.600 46.000 C 221.600 45.780,221.071 45.600,220.424 45.600 C 219.777 45.600,219.136 45.420,219.000 45.200 C 218.853 44.962,216.329 44.800,212.776 44.800 C 209.059 44.800,206.800 44.951,206.800 45.200 M359.895 194.264 C 359.073 194.849,358.400 195.569,358.400 195.864 C 358.400 196.159,358.220 196.400,358.000 196.400 C 357.780 196.400,357.600 196.760,357.600 197.200 C 357.600 197.640,357.420 198.000,357.200 198.000 C 356.967 198.000,356.800 199.333,356.800 201.200 L 356.800 204.400 353.288 204.400 C 350.235 204.400,349.701 204.505,349.200 205.200 C 348.883 205.640,348.405 206.000,348.139 206.000 C 347.872 206.000,347.540 206.360,347.400 206.800 C 347.260 207.240,346.978 207.600,346.773 207.600 C 346.568 207.600,346.400 207.960,346.400 208.400 C 346.400 208.840,346.220 209.200,346.000 209.200 C 345.780 209.200,345.600 210.179,345.600 211.376 C 345.600 212.573,345.780 213.664,346.000 213.800 C 346.220 213.936,346.400 214.379,346.400 214.784 C 346.400 215.860,349.097 218.400,350.240 218.400 C 350.768 218.400,351.200 218.580,351.200 218.800 C 351.200 219.029,352.400 219.200,354.000 219.200 L 356.800 219.200 356.800 221.776 C 356.800 223.193,356.980 224.464,357.200 224.600 C 357.420 224.736,357.600 225.215,357.600 225.664 C 357.600 226.732,360.084 229.200,361.160 229.200 C 361.622 229.200,362.000 229.380,362.000 229.600 C 362.000 229.820,362.979 230.000,364.176 230.000 C 365.373 230.000,366.464 229.820,366.600 229.600 C 366.736 229.380,367.113 229.200,367.437 229.200 C 368.101 229.200,370.474 226.956,371.154 225.685 C 371.399 225.227,371.600 223.581,371.600 222.026 L 371.600 219.200 374.376 219.200 C 375.903 219.200,377.264 219.020,377.400 218.800 C 377.536 218.580,377.924 218.400,378.263 218.400 C 378.602 218.400,379.671 217.561,380.640 216.536 L 382.400 214.673 382.400 211.536 C 382.400 209.712,382.233 208.400,382.000 208.400 C 381.780 208.400,381.600 208.122,381.600 207.782 C 381.600 207.442,381.158 206.722,380.618 206.182 C 380.078 205.642,379.358 205.200,379.018 205.200 C 378.678 205.200,378.400 205.020,378.400 204.800 C 378.400 204.565,377.000 204.400,375.000 204.400 L 371.600 204.400 371.600 201.238 C 371.600 195.598,369.350 193.200,364.057 193.200 C 361.811 193.200,361.154 193.368,359.895 194.264 M282.600 232.000 C 282.464 232.220,282.087 232.400,281.763 232.400 C 281.099 232.400,278.726 234.644,278.046 235.915 C 277.492 236.950,277.454 243.463,278.000 243.800 C 278.220 243.936,278.400 245.016,278.400 246.200 C 278.400 247.384,278.580 248.464,278.800 248.600 C 279.020 248.736,279.200 249.791,279.200 250.944 C 279.200 252.097,279.365 253.211,279.568 253.420 C 279.930 253.795,280.211 256.225,280.640 262.700 C 280.760 264.515,281.026 266.000,281.229 266.000 C 281.433 266.000,281.600 267.699,281.600 269.776 C 281.600 271.863,281.779 273.663,282.000 273.800 C 282.237 273.946,282.400 276.404,282.400 279.824 C 282.400 283.408,282.552 285.600,282.800 285.600 C 283.060 285.600,283.200 291.600,283.200 302.800 C 283.200 314.840,283.071 320.000,282.768 320.000 C 282.276 320.000,282.473 324.956,283.052 327.140 C 283.770 329.841,281.621 350.997,280.325 354.000 C 279.219 356.562,278.927 357.128,277.750 359.000 C 269.850 371.564,249.698 373.777,238.405 363.322 C 228.415 354.073,228.077 337.248,237.678 327.174 C 239.671 325.083,244.319 321.600,245.117 321.600 C 245.315 321.600,246.058 321.310,246.768 320.956 C 250.632 319.029,258.516 318.570,263.200 320.000 C 267.761 321.393,269.843 320.988,272.266 318.237 C 272.962 317.447,273.817 316.800,274.166 316.800 C 275.150 316.800,275.014 313.210,273.959 311.312 C 272.874 309.359,272.010 308.400,271.338 308.400 C 271.042 308.400,270.800 308.220,270.800 308.000 C 270.800 307.780,270.260 307.600,269.600 307.600 C 268.940 307.600,268.400 307.420,268.400 307.200 C 268.400 306.980,267.680 306.800,266.800 306.800 C 265.920 306.800,265.200 306.620,265.200 306.400 C 265.200 306.178,264.133 306.000,262.800 306.000 C 261.467 306.000,260.400 305.822,260.400 305.600 C 260.400 305.359,258.733 305.200,256.200 305.200 C 253.667 305.200,252.000 305.359,252.000 305.600 C 252.000 305.822,250.933 306.000,249.600 306.000 C 248.267 306.000,247.200 306.178,247.200 306.400 C 247.200 306.620,246.480 306.800,245.600 306.800 C 244.720 306.800,244.000 306.980,244.000 307.200 C 244.000 307.420,243.550 307.600,243.000 307.600 C 242.450 307.600,242.000 307.764,242.000 307.965 C 242.000 308.166,241.280 308.451,240.400 308.600 C 239.520 308.749,238.800 309.034,238.800 309.235 C 238.800 309.436,238.440 309.600,238.000 309.600 C 237.560 309.600,237.200 309.780,237.200 310.000 C 237.200 310.220,236.840 310.400,236.400 310.400 C 235.960 310.400,235.600 310.568,235.600 310.773 C 235.600 310.978,235.234 311.262,234.787 311.404 C 234.340 311.546,233.538 312.098,233.005 312.631 C 232.472 313.164,231.864 313.600,231.653 313.600 C 230.835 313.600,224.800 320.042,224.800 320.915 C 224.800 321.194,224.440 321.683,224.000 322.000 C 223.560 322.317,223.200 322.857,223.200 323.200 C 223.200 323.543,222.840 324.083,222.400 324.400 C 221.960 324.717,221.600 325.297,221.600 325.688 C 221.600 326.080,221.420 326.400,221.200 326.400 C 220.980 326.400,220.800 326.760,220.800 327.200 C 220.800 327.640,220.620 328.000,220.400 328.000 C 220.180 328.000,220.000 328.450,220.000 329.000 C 220.000 329.550,219.820 330.000,219.600 330.000 C 219.380 330.000,219.200 330.439,219.200 330.976 C 219.200 331.513,219.020 332.064,218.800 332.200 C 218.580 332.336,218.400 332.977,218.400 333.624 C 218.400 334.271,218.237 334.800,218.037 334.800 C 217.555 334.800,217.190 338.194,216.953 344.900 C 216.821 348.607,216.895 350.400,217.179 350.400 C 217.427 350.400,217.600 351.387,217.600 352.800 C 217.600 354.133,217.778 355.200,218.000 355.200 C 218.220 355.200,218.400 355.830,218.400 356.600 C 218.400 357.370,218.580 358.000,218.800 358.000 C 219.020 358.000,219.200 358.540,219.200 359.200 C 219.200 359.860,219.380 360.400,219.600 360.400 C 219.820 360.400,220.000 360.760,220.000 361.200 C 220.000 361.640,220.180 362.000,220.400 362.000 C 220.620 362.000,220.800 362.360,220.800 362.800 C 220.800 363.240,220.980 363.600,221.200 363.600 C 221.420 363.600,221.600 363.960,221.600 364.400 C 221.600 364.840,221.780 365.200,222.000 365.200 C 222.220 365.200,222.400 365.520,222.400 365.912 C 222.400 366.303,222.760 366.883,223.200 367.200 C 223.640 367.517,224.000 368.015,224.000 368.306 C 224.000 368.598,224.405 369.252,224.900 369.759 C 225.395 370.267,226.175 371.114,226.634 371.641 C 228.230 373.476,231.157 376.000,231.688 376.000 C 231.983 376.000,232.483 376.360,232.800 376.800 C 233.117 377.240,233.697 377.600,234.088 377.600 C 234.480 377.600,234.800 377.780,234.800 378.000 C 234.800 378.220,235.160 378.400,235.600 378.400 C 236.040 378.400,236.400 378.580,236.400 378.800 C 236.400 379.020,236.760 379.200,237.200 379.200 C 237.640 379.200,238.000 379.380,238.000 379.600 C 238.000 379.820,238.360 380.000,238.800 380.000 C 239.240 380.000,239.600 380.180,239.600 380.400 C 239.600 380.620,239.960 380.800,240.400 380.800 C 240.840 380.800,241.200 380.980,241.200 381.200 C 241.200 381.420,241.830 381.600,242.600 381.600 C 243.370 381.600,244.000 381.780,244.000 382.000 C 244.000 382.220,244.720 382.400,245.600 382.400 C 246.480 382.400,247.200 382.580,247.200 382.800 C 247.200 383.033,248.533 383.200,250.400 383.200 C 252.267 383.200,253.600 383.367,253.600 383.600 C 253.600 383.826,254.733 384.000,256.200 384.000 C 257.667 384.000,258.800 383.826,258.800 383.600 C 258.800 383.367,260.133 383.200,262.000 383.200 C 263.867 383.200,265.200 383.033,265.200 382.800 C 265.200 382.580,265.920 382.400,266.800 382.400 C 267.680 382.400,268.400 382.220,268.400 382.000 C 268.400 381.780,269.030 381.600,269.800 381.600 C 270.570 381.600,271.200 381.420,271.200 381.200 C 271.200 380.980,271.650 380.800,272.200 380.800 C 272.750 380.800,273.200 380.620,273.200 380.400 C 273.200 380.180,273.560 380.000,274.000 380.000 C 274.440 380.000,274.800 379.820,274.800 379.600 C 274.800 379.380,275.070 379.200,275.400 379.200 C 275.730 379.200,276.000 379.020,276.000 378.800 C 276.000 378.580,276.360 378.400,276.800 378.400 C 277.240 378.400,277.600 378.220,277.600 378.000 C 277.600 377.780,277.920 377.600,278.312 377.600 C 278.703 377.600,279.283 377.240,279.600 376.800 C 279.917 376.360,280.414 376.000,280.705 376.000 C 281.511 376.000,288.400 369.535,288.400 368.780 C 288.400 368.602,288.646 368.211,288.947 367.911 C 289.775 367.082,291.600 363.500,291.600 362.703 C 291.600 362.316,291.780 362.000,292.000 362.000 C 292.220 362.000,292.400 361.651,292.400 361.224 C 292.400 360.797,292.580 360.336,292.800 360.200 C 293.020 360.064,293.200 359.513,293.200 358.976 C 293.200 358.439,293.380 358.000,293.600 358.000 C 293.820 358.000,294.000 357.370,294.000 356.600 C 294.000 355.830,294.180 355.200,294.400 355.200 C 294.622 355.200,294.800 354.133,294.800 352.800 C 294.800 351.467,294.978 350.400,295.200 350.400 C 295.444 350.400,295.600 348.533,295.600 345.600 C 295.600 342.667,295.756 340.800,296.000 340.800 C 296.239 340.800,296.400 339.267,296.400 337.000 C 296.400 334.733,296.561 333.200,296.800 333.200 C 297.048 333.200,297.200 331.000,297.200 327.400 C 297.200 323.800,297.352 321.600,297.600 321.600 C 297.861 321.600,298.000 314.875,298.000 302.224 C 298.000 289.737,297.858 282.759,297.600 282.600 C 297.365 282.455,297.200 280.129,297.200 276.976 C 297.200 273.659,297.047 271.600,296.800 271.600 C 296.562 271.600,296.400 270.075,296.400 267.824 C 296.400 265.737,296.221 263.937,296.000 263.800 C 295.780 263.664,295.600 262.033,295.600 260.176 C 295.600 258.192,295.435 256.800,295.200 256.800 C 294.975 256.800,294.800 255.675,294.800 254.224 C 294.800 252.807,294.620 251.536,294.400 251.400 C 293.568 250.886,293.919 247.200,294.800 247.200 C 295.240 247.200,295.600 247.380,295.600 247.600 C 295.600 247.820,296.320 248.000,297.200 248.000 C 298.080 248.000,298.800 248.180,298.800 248.400 C 298.800 248.620,299.340 248.800,300.000 248.800 C 300.660 248.800,301.200 248.980,301.200 249.200 C 301.200 249.420,301.549 249.600,301.976 249.600 C 302.403 249.600,302.864 249.780,303.000 250.000 C 303.136 250.220,303.687 250.400,304.224 250.400 C 304.761 250.400,305.200 250.580,305.200 250.800 C 305.200 251.020,305.560 251.200,306.000 251.200 C 306.440 251.200,306.800 251.380,306.800 251.600 C 306.800 251.820,307.036 252.000,307.325 252.000 C 307.613 252.000,308.236 252.360,308.708 252.800 C 309.180 253.240,309.754 253.600,309.983 253.600 C 310.212 253.600,310.400 253.750,310.400 253.932 C 310.400 254.115,310.895 254.520,311.500 254.832 C 313.518 255.874,321.600 263.641,321.600 264.539 C 321.600 264.805,321.960 265.283,322.400 265.600 C 322.840 265.917,323.200 266.497,323.200 266.888 C 323.200 267.280,323.380 267.600,323.600 267.600 C 323.820 267.600,324.000 267.855,324.000 268.167 C 324.000 268.478,324.142 268.793,324.315 268.867 C 324.716 269.037,326.800 273.866,326.800 274.626 C 326.800 274.942,326.980 275.200,327.200 275.200 C 327.420 275.200,327.600 275.740,327.600 276.400 C 327.600 277.060,327.780 277.600,328.000 277.600 C 328.220 277.600,328.400 278.219,328.400 278.976 C 328.400 279.733,328.580 280.464,328.800 280.600 C 329.020 280.736,329.200 281.726,329.200 282.800 C 329.200 283.874,329.380 284.864,329.600 285.000 C 329.832 285.143,330.000 287.330,330.000 290.200 C 330.000 293.070,329.832 295.257,329.600 295.400 C 329.380 295.536,329.200 296.526,329.200 297.600 C 329.200 298.674,329.020 299.664,328.800 299.800 C 328.580 299.936,328.400 300.667,328.400 301.424 C 328.400 302.181,328.220 302.800,328.000 302.800 C 327.780 302.800,327.600 303.329,327.600 303.976 C 327.600 304.623,327.420 305.264,327.200 305.400 C 326.980 305.536,326.800 306.087,326.800 306.624 C 326.800 307.161,326.664 307.600,326.497 307.600 C 325.973 307.600,325.200 310.705,325.200 312.814 C 325.200 315.575,327.169 319.200,328.670 319.200 C 328.961 319.200,329.200 319.380,329.200 319.600 C 329.200 319.820,329.740 320.000,330.400 320.000 C 331.060 320.000,331.600 320.180,331.600 320.400 C 331.600 320.620,332.320 320.800,333.200 320.800 C 334.080 320.800,334.800 320.980,334.800 321.200 C 334.800 321.451,337.400 321.600,341.800 321.600 C 346.200 321.600,348.800 321.451,348.800 321.200 C 348.800 320.980,349.419 320.800,350.176 320.800 C 350.933 320.800,351.664 320.620,351.800 320.400 C 351.936 320.180,352.397 320.000,352.824 320.000 C 353.251 320.000,353.600 319.820,353.600 319.600 C 353.600 319.380,353.865 319.200,354.188 319.200 C 354.719 319.200,355.636 318.753,358.416 317.138 C 358.925 316.842,359.876 316.105,360.530 315.500 C 361.184 314.895,361.877 314.400,362.070 314.400 C 362.585 314.400,366.000 310.899,366.000 310.371 C 366.000 310.123,366.540 309.417,367.200 308.800 C 367.860 308.183,368.400 307.481,368.400 307.240 C 368.400 306.998,368.580 306.800,368.800 306.800 C 369.020 306.800,369.200 306.545,369.200 306.233 C 369.200 305.922,369.335 305.607,369.500 305.533 C 371.420 304.680,372.395 297.004,370.800 295.292 C 370.360 294.820,370.000 294.278,370.000 294.088 C 370.000 293.897,369.177 293.331,368.172 292.829 C 364.181 290.836,357.600 292.669,357.600 295.773 C 357.600 296.118,357.420 296.400,357.200 296.400 C 356.980 296.400,356.800 296.720,356.800 297.112 C 356.800 297.503,356.440 298.083,356.000 298.400 C 355.560 298.717,355.200 299.212,355.200 299.499 C 355.200 300.178,351.778 303.600,351.099 303.600 C 350.812 303.600,350.317 303.960,350.000 304.400 C 349.683 304.840,349.103 305.200,348.712 305.200 C 348.320 305.200,348.000 305.380,348.000 305.600 C 348.000 305.820,347.460 306.000,346.800 306.000 C 346.140 306.000,345.600 306.180,345.600 306.400 C 345.600 306.620,344.880 306.800,344.000 306.800 C 342.481 306.800,341.928 306.339,342.800 305.800 C 343.020 305.664,343.200 304.753,343.200 303.776 C 343.200 302.799,343.380 302.000,343.600 302.000 C 343.822 302.000,344.000 300.941,344.000 299.624 C 344.000 298.317,344.180 297.136,344.400 297.000 C 344.639 296.852,344.800 294.204,344.800 290.400 C 344.800 286.596,344.639 283.948,344.400 283.800 C 344.180 283.664,344.000 282.393,344.000 280.976 C 344.000 279.525,343.825 278.400,343.600 278.400 C 343.380 278.400,343.200 277.590,343.200 276.600 C 343.200 275.610,343.020 274.800,342.800 274.800 C 342.580 274.800,342.400 274.260,342.400 273.600 C 342.400 272.940,342.244 272.400,342.054 272.400 C 341.864 272.400,341.597 271.588,341.461 270.595 C 341.325 269.602,340.851 268.039,340.407 267.120 C 339.963 266.201,339.600 265.214,339.600 264.925 C 339.600 264.636,339.420 264.400,339.200 264.400 C 338.980 264.400,338.800 264.040,338.800 263.600 C 338.800 263.160,338.620 262.800,338.400 262.800 C 338.180 262.800,338.000 262.440,338.000 262.000 C 338.000 261.560,337.864 261.200,337.698 261.200 C 337.531 261.200,337.171 260.694,336.897 260.075 C 336.624 259.456,336.040 258.564,335.600 258.092 C 335.160 257.620,334.800 257.028,334.800 256.777 C 334.800 256.526,334.260 255.817,333.600 255.200 C 332.940 254.583,332.400 253.883,332.400 253.644 C 332.400 252.523,321.117 242.000,319.915 242.000 C 319.619 242.000,319.117 241.640,318.800 241.200 C 318.483 240.760,317.986 240.400,317.695 240.400 C 317.404 240.400,316.780 240.040,316.308 239.600 C 315.836 239.160,315.213 238.800,314.925 238.800 C 314.636 238.800,314.400 238.620,314.400 238.400 C 314.400 238.180,314.040 238.000,313.600 238.000 C 313.160 238.000,312.800 237.820,312.800 237.600 C 312.800 237.380,312.451 237.200,312.024 237.200 C 311.597 237.200,311.136 237.020,311.000 236.800 C 310.864 236.580,310.313 236.400,309.776 236.400 C 309.239 236.400,308.800 236.220,308.800 236.000 C 308.800 235.780,308.440 235.600,308.000 235.600 C 307.560 235.600,307.200 235.420,307.200 235.200 C 307.200 234.980,306.660 234.800,306.000 234.800 C 305.340 234.800,304.800 234.620,304.800 234.400 C 304.800 234.180,304.170 234.000,303.400 234.000 C 302.630 234.000,302.000 233.820,302.000 233.600 C 302.000 233.380,301.291 233.200,300.424 233.200 C 299.557 233.200,298.736 233.020,298.600 232.800 C 298.464 232.580,297.204 232.400,295.800 232.400 C 294.396 232.400,293.136 232.220,293.000 232.000 C 292.857 231.768,290.670 231.600,287.800 231.600 C 284.930 231.600,282.743 231.768,282.600 232.000 M133.400 294.400 C 133.264 294.620,132.711 294.800,132.171 294.800 C 129.082 294.800,126.800 298.034,126.800 302.412 L 126.800 305.200 124.600 305.200 C 123.390 305.200,122.400 305.380,122.400 305.600 C 122.400 305.820,121.948 306.000,121.395 306.000 C 118.288 306.000,116.000 309.052,116.000 313.195 C 116.000 314.798,116.171 316.000,116.400 316.000 C 116.620 316.000,116.800 316.278,116.800 316.618 C 116.800 317.418,118.582 319.200,119.382 319.200 C 119.722 319.200,120.000 319.380,120.000 319.600 C 120.000 319.835,121.400 320.000,123.400 320.000 L 126.800 320.000 126.800 323.176 C 126.800 324.923,126.980 326.464,127.200 326.600 C 127.420 326.736,127.600 327.115,127.600 327.442 C 127.600 328.223,129.393 330.000,130.182 330.000 C 130.522 330.000,130.800 330.180,130.800 330.400 C 130.800 330.620,131.329 330.800,131.976 330.800 C 132.623 330.800,133.264 330.980,133.400 331.200 C 133.536 331.420,133.997 331.600,134.424 331.600 C 134.851 331.600,135.200 331.420,135.200 331.200 C 135.200 330.980,135.830 330.800,136.600 330.800 C 137.370 330.800,138.000 330.620,138.000 330.400 C 138.000 330.180,138.283 330.000,138.629 330.000 C 140.374 330.000,141.600 327.204,141.600 323.220 L 141.600 320.000 145.200 320.000 C 147.333 320.000,148.800 319.837,148.800 319.600 C 148.800 319.380,149.083 319.200,149.429 319.200 C 150.228 319.200,150.944 318.480,151.979 316.637 C 152.860 315.070,153.181 310.000,152.400 310.000 C 152.180 310.000,152.000 309.722,152.000 309.382 C 152.000 308.582,150.218 306.800,149.418 306.800 C 149.078 306.800,148.800 306.620,148.800 306.400 C 148.800 306.180,148.260 306.000,147.600 306.000 C 146.940 306.000,146.400 305.820,146.400 305.600 C 146.400 305.378,145.333 305.200,144.000 305.200 L 141.600 305.200 141.600 302.059 C 141.600 298.638,140.725 296.619,138.890 295.805 C 138.401 295.588,138.000 295.273,138.000 295.105 C 138.000 294.937,137.471 294.800,136.824 294.800 C 136.177 294.800,135.536 294.620,135.400 294.400 C 135.264 294.180,134.814 294.000,134.400 294.000 C 133.986 294.000,133.536 294.180,133.400 294.400 M30.200 342.058 C 27.260 343.145,26.000 345.482,26.000 349.849 L 26.000 352.800 22.600 352.800 C 20.600 352.800,19.200 352.965,19.200 353.200 C 19.200 353.420,18.922 353.600,18.582 353.600 C 17.782 353.600,16.000 355.382,16.000 356.182 C 16.000 356.522,15.820 356.800,15.600 356.800 C 15.369 356.800,15.200 358.067,15.200 359.800 C 15.200 361.533,15.369 362.800,15.600 362.800 C 15.820 362.800,16.000 363.091,16.000 363.446 C 16.000 364.597,18.810 366.800,20.278 366.800 C 21.005 366.800,21.600 366.980,21.600 367.200 C 21.600 367.420,22.590 367.600,23.800 367.600 L 26.000 367.600 26.000 370.405 C 26.000 371.948,26.225 373.610,26.500 374.098 C 27.352 375.611,29.712 377.600,30.655 377.600 C 31.149 377.600,31.664 377.780,31.800 378.000 C 31.936 378.220,32.656 378.400,33.400 378.400 C 34.144 378.400,34.864 378.220,35.000 378.000 C 35.136 377.780,35.687 377.600,36.224 377.600 C 36.761 377.600,37.200 377.420,37.200 377.200 C 37.200 376.980,37.483 376.800,37.829 376.800 C 39.423 376.800,41.200 373.176,41.200 369.925 L 41.200 367.600 43.400 367.600 C 44.610 367.600,45.600 367.420,45.600 367.200 C 45.600 366.980,46.140 366.800,46.800 366.800 C 47.460 366.800,48.000 366.620,48.000 366.400 C 48.000 366.180,48.278 366.000,48.618 366.000 C 49.407 366.000,51.200 364.223,51.200 363.442 C 51.200 363.115,51.380 362.736,51.600 362.600 C 51.820 362.464,52.000 361.294,52.000 360.000 C 52.000 358.706,51.820 357.536,51.600 357.400 C 51.380 357.264,51.200 356.848,51.200 356.476 C 51.199 355.561,49.463 353.600,48.653 353.600 C 48.294 353.600,48.000 353.420,48.000 353.200 C 48.000 352.965,46.600 352.800,44.600 352.800 L 41.200 352.800 41.200 349.995 C 41.200 348.452,41.047 346.877,40.861 346.495 C 39.006 342.700,37.932 341.950,34.068 341.751 C 32.600 341.676,30.860 341.814,30.200 342.058 " stroke="none" fill="#040404" fill-rule="evenodd"></path><path id="path3" d="M209.800 58.783 C 209.360 58.963,207.650 59.510,206.000 59.997 C 204.350 60.484,202.687 61.044,202.305 61.241 C 201.923 61.438,201.259 61.600,200.829 61.600 C 200.399 61.600,199.936 61.780,199.800 62.000 C 199.664 62.220,199.201 62.400,198.771 62.400 C 198.341 62.400,197.677 62.560,197.295 62.756 C 196.913 62.952,194.350 63.833,191.600 64.714 C 174.025 70.342,164.910 73.322,164.305 73.638 C 163.923 73.837,163.259 74.000,162.829 74.000 C 162.399 74.000,161.936 74.180,161.800 74.400 C 161.664 74.620,161.124 74.800,160.600 74.800 C 160.076 74.800,159.536 74.980,159.400 75.200 C 159.264 75.420,158.724 75.600,158.200 75.600 C 157.676 75.600,157.136 75.780,157.000 76.000 C 156.864 76.220,156.324 76.400,155.800 76.400 C 155.276 76.400,154.736 76.580,154.600 76.800 C 154.464 77.020,154.001 77.200,153.571 77.200 C 153.141 77.200,152.477 77.361,152.095 77.559 C 151.713 77.756,147.980 79.011,143.800 80.348 C 122.236 87.244,109.729 91.314,109.105 91.638 C 108.723 91.837,108.059 92.000,107.629 92.000 C 107.199 92.000,106.736 92.180,106.600 92.400 C 106.464 92.620,105.924 92.800,105.400 92.800 C 104.876 92.800,104.336 92.980,104.200 93.200 C 104.064 93.420,103.524 93.600,103.000 93.600 C 102.476 93.600,101.936 93.780,101.800 94.000 C 101.664 94.220,101.124 94.400,100.600 94.400 C 100.076 94.400,99.536 94.580,99.400 94.800 C 99.264 95.020,98.801 95.200,98.371 95.200 C 97.941 95.200,97.277 95.364,96.895 95.565 C 96.513 95.766,93.770 96.689,90.800 97.617 C 82.639 100.166,80.300 101.725,78.247 105.980 C 76.274 110.070,76.447 113.223,79.204 123.400 C 79.680 125.160,80.225 127.320,80.413 128.200 C 80.602 129.080,80.928 130.520,81.138 131.400 C 81.742 133.932,82.316 136.631,83.380 141.941 C 84.281 146.437,84.978 148.355,85.514 147.819 C 85.624 147.709,85.502 147.364,85.243 147.052 C 84.984 146.739,84.600 145.520,84.391 144.342 C 83.353 138.497,81.210 129.081,79.126 121.200 C 76.513 111.317,76.985 107.015,81.139 102.861 C 83.422 100.578,88.108 98.791,108.800 92.309 C 110.230 91.862,111.760 91.357,112.200 91.188 C 113.375 90.737,115.162 90.161,117.200 89.577 C 118.190 89.293,119.171 88.912,119.380 88.730 C 119.589 88.549,120.086 88.400,120.485 88.400 C 120.884 88.400,121.523 88.236,121.905 88.037 C 122.287 87.837,126.020 86.577,130.200 85.237 C 152.089 78.219,168.843 72.782,169.800 72.385 C 170.240 72.202,171.230 71.861,172.000 71.627 C 173.446 71.187,177.218 69.958,197.000 63.482 C 210.880 58.938,212.080 58.654,214.863 59.251 C 222.066 60.796,224.636 64.251,227.173 75.800 C 227.366 76.680,227.785 78.390,228.103 79.600 C 228.421 80.810,228.898 82.880,229.164 84.200 C 229.430 85.520,229.800 87.140,229.986 87.800 C 231.124 91.839,230.956 92.408,228.400 93.170 C 225.685 93.980,221.900 95.212,221.000 95.578 C 220.560 95.758,217.230 96.854,213.600 98.014 C 209.970 99.174,204.390 100.977,201.200 102.019 C 198.010 103.061,190.540 105.479,184.600 107.392 C 178.660 109.305,173.487 111.034,173.105 111.235 C 172.723 111.436,172.136 111.600,171.800 111.600 C 171.464 111.600,170.877 111.762,170.495 111.961 C 170.113 112.160,165.498 113.726,160.239 115.441 C 154.981 117.156,150.899 118.633,151.168 118.723 C 151.438 118.813,152.950 118.433,154.529 117.880 C 156.108 117.327,161.990 115.401,167.600 113.600 C 173.210 111.800,178.113 110.163,178.495 109.963 C 178.877 109.763,179.541 109.600,179.971 109.600 C 180.401 109.600,180.864 109.420,181.000 109.200 C 181.136 108.980,181.676 108.800,182.200 108.800 C 182.724 108.800,183.264 108.620,183.400 108.400 C 183.536 108.180,184.076 108.000,184.600 108.000 C 185.124 108.000,185.664 107.820,185.800 107.600 C 185.936 107.380,186.399 107.200,186.829 107.200 C 187.259 107.200,187.923 107.036,188.305 106.835 C 188.926 106.509,206.543 100.780,213.200 98.739 C 214.630 98.301,216.160 97.797,216.600 97.619 C 217.040 97.441,220.370 96.342,224.000 95.177 C 231.235 92.854,231.673 92.581,231.217 90.677 C 231.048 89.974,230.697 88.410,230.436 87.200 C 229.739 83.971,229.198 81.594,228.775 79.900 C 228.569 79.075,228.220 77.680,228.000 76.800 C 227.780 75.920,227.420 74.480,227.200 73.600 C 225.687 67.547,225.359 66.649,223.849 64.413 C 220.795 59.892,213.863 57.114,209.800 58.783 M140.400 121.817 C 135.450 123.441,127.980 125.879,123.800 127.233 C 119.620 128.587,115.840 129.836,115.400 130.007 C 114.960 130.179,113.970 130.549,113.200 130.829 C 110.095 131.960,108.248 135.324,108.813 138.821 C 109.132 140.796,109.232 140.497,109.400 137.066 C 109.581 133.384,110.813 132.157,116.040 130.459 C 118.328 129.716,120.513 128.948,120.895 128.754 C 121.277 128.559,121.916 128.400,122.315 128.400 C 122.714 128.400,123.211 128.251,123.420 128.070 C 123.629 127.888,124.610 127.510,125.600 127.231 C 126.590 126.951,127.713 126.560,128.095 126.361 C 128.477 126.162,129.064 126.000,129.400 126.000 C 129.736 126.000,130.323 125.842,130.705 125.649 C 131.087 125.456,132.120 125.084,133.000 124.823 C 133.880 124.561,134.960 124.200,135.400 124.019 C 135.840 123.839,137.010 123.470,138.000 123.200 C 138.990 122.930,140.160 122.561,140.600 122.381 C 142.296 121.685,146.280 120.399,146.827 120.370 C 147.639 120.328,150.728 118.859,150.000 118.861 C 149.670 118.862,145.350 120.192,140.400 121.817 M374.509 145.200 C 374.509 146.190,374.587 146.595,374.682 146.100 C 374.778 145.605,374.778 144.795,374.682 144.300 C 374.587 143.805,374.509 144.210,374.509 145.200 M368.975 158.500 L 367.800 159.800 369.100 158.625 C 369.815 157.979,370.400 157.394,370.400 157.325 C 370.400 157.016,370.070 157.288,368.975 158.500 M366.200 160.650 C 365.481 161.262,365.334 161.505,365.833 161.257 C 366.566 160.893,367.941 159.576,367.549 159.614 C 367.467 159.622,366.860 160.088,366.200 160.650 M231.354 190.577 C 231.232 190.894,231.193 191.452,231.266 191.818 C 231.356 192.266,231.552 192.078,231.865 191.241 C 232.134 190.524,232.171 190.000,231.953 190.000 C 231.745 190.000,231.475 190.259,231.354 190.577 M198.800 191.589 C 198.470 191.808,197.716 191.991,197.124 191.994 C 196.532 191.997,195.936 192.180,195.800 192.400 C 195.664 192.620,195.213 192.800,194.798 192.800 C 191.399 192.800,180.607 201.152,178.355 205.525 C 178.050 206.116,177.711 206.690,177.600 206.800 C 177.131 207.267,175.132 211.962,174.708 213.594 C 173.277 219.110,173.247 224.448,174.611 231.000 C 175.163 233.653,178.545 240.338,179.974 241.600 C 180.098 241.710,180.874 242.639,181.697 243.664 C 184.357 246.975,190.646 251.096,195.000 252.380 C 200.350 253.959,206.650 254.483,209.954 253.624 C 210.749 253.417,212.570 252.951,214.000 252.589 C 216.581 251.934,221.899 249.358,223.055 248.203 C 223.386 247.871,223.792 247.600,223.957 247.600 C 224.542 247.600,229.321 242.566,230.793 240.400 C 233.726 236.082,236.038 230.102,235.955 227.049 C 235.914 225.551,235.865 225.638,235.412 228.000 C 229.881 256.870,191.082 262.766,177.505 236.800 C 164.630 212.176,188.181 184.787,215.057 193.129 C 215.748 193.344,217.897 194.348,219.831 195.360 C 223.616 197.341,225.393 197.632,227.732 196.654 C 229.088 196.088,231.209 193.887,231.187 193.069 C 231.180 192.811,230.933 192.918,230.639 193.306 C 230.344 193.695,229.767 194.460,229.356 195.006 C 228.946 195.553,228.303 196.000,227.929 196.000 C 227.554 196.000,227.136 196.180,227.000 196.400 C 226.864 196.620,225.964 196.800,225.000 196.800 C 224.036 196.800,223.136 196.620,223.000 196.400 C 222.864 196.180,222.418 196.000,222.010 196.000 C 221.601 196.000,221.207 195.859,221.133 195.686 C 220.921 195.186,216.007 192.800,215.189 192.800 C 214.781 192.800,214.348 192.640,214.227 192.444 C 213.670 191.542,200.010 190.785,198.800 191.589 M238.123 196.000 C 238.151 196.770,238.025 199.740,237.845 202.600 C 237.664 205.460,237.645 207.675,237.802 207.523 C 238.237 207.101,238.764 196.366,238.396 195.425 C 238.144 194.779,238.084 194.905,238.123 196.000 M236.843 213.400 C 236.537 216.260,236.237 220.130,236.176 222.000 L 236.066 225.400 236.434 222.000 C 236.636 220.130,236.998 217.160,237.238 215.400 C 237.478 213.640,237.613 211.300,237.537 210.200 C 237.432 208.670,237.269 209.421,236.843 213.400 M249.600 224.000 C 249.600 225.333,249.778 226.400,250.000 226.400 C 250.222 226.400,250.400 225.333,250.400 224.000 C 250.400 222.667,250.222 221.600,250.000 221.600 C 249.778 221.600,249.600 222.667,249.600 224.000 M248.800 229.600 C 248.800 230.260,248.980 230.800,249.200 230.800 C 249.420 230.800,249.600 230.260,249.600 229.600 C 249.600 228.940,249.420 228.400,249.200 228.400 C 248.980 228.400,248.800 228.940,248.800 229.600 M38.000 243.989 C 37.670 244.208,36.993 244.391,36.495 244.394 C 35.997 244.397,35.277 244.567,34.895 244.771 C 34.513 244.975,33.859 245.249,33.443 245.380 C 33.026 245.511,32.764 245.697,32.860 245.793 C 32.956 245.889,34.197 245.590,35.617 245.128 C 54.593 238.960,75.501 254.603,75.593 275.039 C 75.621 281.418,84.633 284.048,87.969 278.651 C 88.462 277.853,89.031 277.200,89.233 277.200 C 89.435 277.200,89.600 276.930,89.600 276.600 C 89.600 275.446,88.594 276.034,87.865 277.614 C 86.497 280.582,82.699 281.979,79.880 280.552 C 76.966 279.076,76.116 277.518,75.869 273.200 C 75.353 264.199,71.378 256.263,64.572 250.650 C 61.956 248.492,55.993 245.190,54.724 245.197 C 54.352 245.199,53.948 245.040,53.827 244.844 C 53.268 243.939,39.219 243.180,38.000 243.989 M30.614 246.524 C 21.147 252.259,13.842 261.542,14.032 267.594 C 14.049 268.147,14.121 268.420,14.192 268.200 C 14.263 267.980,14.623 266.823,14.992 265.629 C 17.445 257.688,22.665 251.498,30.600 247.118 C 31.700 246.511,32.330 246.022,32.000 246.031 C 31.670 246.040,31.046 246.261,30.614 246.524 M13.452 269.700 C 13.126 270.916,13.188 279.627,13.528 280.485 C 13.678 280.862,13.800 278.387,13.800 274.985 C 13.800 271.583,13.776 268.800,13.747 268.800 C 13.717 268.800,13.585 269.205,13.452 269.700 M14.036 282.291 C 13.780 288.656,27.175 304.099,32.856 303.989 C 33.155 303.984,32.098 303.288,30.506 302.443 C 22.805 298.355,16.698 291.035,14.617 283.400 C 14.317 282.300,14.055 281.801,14.036 282.291 M58.200 302.651 C 51.101 305.819,43.660 306.587,37.036 304.836 C 33.363 303.866,33.479 303.881,33.800 304.400 C 33.936 304.620,34.476 304.800,35.000 304.800 C 35.524 304.800,36.052 304.961,36.174 305.158 C 36.724 306.047,46.830 306.694,49.547 306.014 C 54.889 304.676,54.991 304.642,58.400 303.069 C 63.590 300.673,67.489 301.740,68.824 305.920 C 69.373 307.640,70.058 308.567,69.738 307.158 C 68.447 301.473,64.391 299.889,58.200 302.651 M272.266 318.237 C 269.819 321.015,267.849 321.384,263.069 319.961 C 258.337 318.552,248.247 319.315,246.223 321.236 C 246.016 321.432,246.916 321.201,248.223 320.722 C 251.819 319.404,259.250 319.224,263.069 320.361 C 267.705 321.742,269.978 321.367,272.072 318.879 C 272.604 318.247,273.390 317.526,273.820 317.277 C 274.271 317.015,274.375 316.819,274.066 316.812 C 273.772 316.805,272.962 317.447,272.266 318.237 M242.200 323.304 C 239.688 325.044,238.000 326.555,238.000 327.063 C 238.000 327.228,238.675 326.707,239.500 325.906 C 240.325 325.105,242.069 323.809,243.376 323.025 C 244.684 322.241,245.494 321.609,245.176 321.620 C 244.859 321.631,243.520 322.389,242.200 323.304 M282.684 331.200 C 282.536 333.950,282.236 337.730,282.017 339.600 C 281.797 341.470,281.530 344.620,281.422 346.600 C 281.304 348.771,281.538 347.421,282.012 343.200 C 283.099 333.506,283.447 328.804,283.180 327.398 C 283.056 326.739,282.832 328.450,282.684 331.200 M236.374 328.562 C 235.810 329.243,234.944 330.520,234.451 331.400 C 233.952 332.290,233.875 332.560,234.277 332.010 C 234.675 331.466,235.597 330.233,236.327 329.271 C 237.861 327.250,237.895 326.727,236.374 328.562 M232.672 334.619 C 232.302 335.393,232.013 336.246,232.028 336.514 C 232.044 336.781,232.408 336.209,232.837 335.242 C 233.771 333.137,233.631 332.608,232.672 334.619 M231.473 337.753 C 231.323 338.145,231.211 338.766,231.225 339.133 C 231.242 339.575,231.381 339.474,231.637 338.834 C 231.849 338.303,231.961 337.682,231.885 337.454 C 231.809 337.227,231.624 337.361,231.473 337.753 M230.701 343.100 C 230.585 344.145,230.628 345.810,230.795 346.800 C 231.051 348.311,231.108 348.006,231.150 344.900 C 231.205 340.849,231.029 340.142,230.701 343.100 M231.256 350.800 C 231.256 351.130,231.411 351.760,231.600 352.200 C 231.817 352.704,231.944 352.778,231.944 352.400 C 231.944 352.070,231.789 351.440,231.600 351.000 C 231.383 350.496,231.256 350.422,231.256 350.800 M280.483 351.900 C 280.256 352.725,279.885 353.988,279.660 354.708 C 279.422 355.470,279.407 355.919,279.626 355.784 C 279.832 355.657,280.000 355.239,280.000 354.856 C 280.000 354.473,280.158 353.989,280.351 353.780 C 280.724 353.377,281.354 350.400,281.067 350.400 C 280.974 350.400,280.711 351.075,280.483 351.900 M277.616 358.632 C 276.880 359.847,275.157 361.867,273.788 363.121 C 271.624 365.102,270.163 365.989,265.200 368.332 L 264.200 368.804 265.200 368.547 C 268.311 367.747,272.522 365.131,275.224 362.320 C 276.579 360.910,279.343 356.809,279.101 356.567 C 279.021 356.488,278.353 357.417,277.616 358.632 M234.488 358.832 C 236.582 362.579,243.582 367.833,247.504 368.602 L 248.600 368.817 247.600 368.353 C 245.370 367.321,243.196 366.400,242.987 366.400 C 241.818 366.400,236.508 361.369,234.860 358.700 C 233.618 356.687,233.344 356.784,234.488 358.832 M249.600 369.200 C 249.930 369.413,250.650 369.573,251.200 369.554 L 252.200 369.520 251.200 369.200 C 249.658 368.706,248.836 368.706,249.600 369.200 M261.200 369.200 L 260.200 369.520 261.200 369.532 C 261.750 369.538,262.560 369.389,263.000 369.200 L 263.800 368.856 263.000 368.868 C 262.560 368.874,261.750 369.024,261.200 369.200 M254.691 369.889 C 255.401 369.977,256.661 369.979,257.491 369.892 C 258.321 369.805,257.740 369.733,256.200 369.731 C 254.660 369.729,253.981 369.800,254.691 369.889 " stroke="none" fill="#5a3133" fill-rule="evenodd"></path></g></svg>